<svg xmlns="http://www.w3.org/2000/svg" viewBox="1275 5166 67.668 64">
  <defs>
    <style>
      .cls-1 {
        fill: #fff;
      }
    </style>
  </defs>
  <g id="maps_icon" transform="translate(1268.4 5157)">
    <path id="Path_51" data-name="Path 51" class="cls-1" d="M47.563,41.827A8.663,8.663,0,1,0,38.9,33.163,8.694,8.694,0,0,0,47.563,41.827Zm0-13.737a5.151,5.151,0,1,1-5.151,5.151A5.1,5.1,0,0,1,47.563,28.09Z" transform="translate(-7.09 -3.402)"/>
    <path id="Path_52" data-name="Path 52" class="cls-1" d="M47.107,73H72.551a1.732,1.732,0,0,0,1.717-1.717,1.865,1.865,0,0,0-.39-1.093l-10.3-18.732a1.71,1.71,0,0,0-1.561-.859h-11c4.839-7.1,9.678-15.688,9.678-21.307a20.254,20.254,0,1,0-40.507,0c0,5.541,4.917,14.2,9.678,21.307h-11a1.673,1.673,0,0,0-1.483.859L6.834,70.424a1.691,1.691,0,0,0,0,1.717A1.9,1.9,0,0,0,8.4,73Zm2.81-3.512,3.122-6.01H66.307l3.278,6.01Zm-26.224-40.2a16.78,16.78,0,1,1,33.561,0c0,5-5.307,13.893-10.459,21.307-.859,1.171-1.717,2.341-2.5,3.512-1.4,1.873-2.732,3.59-3.824,5-1.093-1.4-2.42-3.044-3.824-5-.624-.859-1.249-1.639-1.873-2.576l-.078-.156a4.29,4.29,0,0,0-.546-.7C29,43.185,23.693,34.288,23.693,29.293ZM19.868,54.034H30.093l-9.6,15.454H11.361Zm13.5,1.4c3.044,4.137,5.541,7.1,5.776,7.493a1.722,1.722,0,0,0,2.654,0c.312-.39,3.278-3.98,6.79-8.82H61.078l3.278,6.01H52.024a1.874,1.874,0,0,0-1.561.937l-4.449,8.507H24.551Z" transform="translate(0)"/>
  </g>
</svg>
