<svg xmlns="http://www.w3.org/2000/svg" viewBox="607.133 5166.5 37.867 64">
  <defs>
    <style>
      .cls-1 {
        fill: #fff;
      }
    </style>
  </defs>
  <path id="phone_icon" class="cls-1" d="M10.767,3H36.9s5.867,0,5.867,5.867V61.133C42.767,67,36.9,67,36.9,67H10.767S4.9,67,4.9,61.133V8.867A5.876,5.876,0,0,1,10.767,3ZM29.433,8.333H18.5a.707.707,0,0,0-.8.8.707.707,0,0,0,.8.8H29.433a.707.707,0,0,0,.8-.8A.707.707,0,0,0,29.433,8.333ZM23.833,64.6A2.933,2.933,0,1,0,20.9,61.667,2.959,2.959,0,0,0,23.833,64.6Zm-16-8h32V12.867h-32Z" transform="translate(602.233 5163.5)"/>
</svg>
