<svg xmlns="http://www.w3.org/2000/svg" viewBox="859.653 1009 200 71">
  <defs>
    <style>
      .cls-1 {
        fill: #fff;
      }
    </style>
  </defs>
  <path id="стрелка" class="cls-1" d="M150.4,37.1A146.58,146.58,0,0,0,124.2,8.8a30.327,30.327,0,0,0-7.7-5.1h0l-.8-.4A17.753,17.753,0,0,0,107.1.6h0c-1.2-.1-2.2-.3-3.4-.4h0A23.578,23.578,0,0,0,100,0a18.3,18.3,0,0,0-3.4.2h0a18.815,18.815,0,0,0-3.3.5h0a18.51,18.51,0,0,0-8.6,2.7l-.8.4h0a32.1,32.1,0,0,0-7.9,5A144.047,144.047,0,0,0,49.8,37.2C29.2,64.6,9.5,70.3,0,71H200C190.6,70.1,170.9,64.7,150.4,37.1Z" transform="translate(859.653 1009)"/>
</svg>
