<?xml version="1.0" encoding="utf-8"?>
<!-- Generator: Adobe Illustrator 22.1.0, SVG Export Plug-In . SVG Version: 6.00 Build 0)  -->
<svg version="1.1" id="Layer_1" xmlns="http://www.w3.org/2000/svg" xmlns:xlink="http://www.w3.org/1999/xlink" x="0px" y="0px"
	 viewBox="0 0 234.7 232" style="enable-background:new 0 0 234.7 232;" xml:space="preserve">
<style type="text/css">
	.st0{fill:#191814;}
	.st1{fill:#FFFFFF;}
</style>
<g>
	<g>
		<path class="st0" d="M225.9,43.1c-0.6,0.4-0.7,1.5-0.2,2.1c1.5,1.8,3.1,0.9,4.7-0.3C228.8,44.4,228.1,41.7,225.9,43.1z"/>
		<path class="st0" d="M219.4,25c-0.8-2-4.8-1.8-7.2,0.1c-2.4,1.9-2.9,4.7-1.3,6.7c1.9,2.3,7.6,2.7,9.7-0.1
			C222,30,220.2,27.1,219.4,25z"/>
		<path class="st0" d="M233.9,31.7c-0.8-0.8-1.5-1.8-2.9-1.2c-1.1,1.3,0.1,2.3,0.6,3.4c0.5,1,1.3,1.1,2.1,0.5
			C235,33.7,234.9,32.7,233.9,31.7z"/>
	</g>
	<g>
		<path class="st0" d="M16,185.7c-0.4-1.1-2.7-1-4,0.1c-1.3,1-1.6,2.6-0.7,3.7c1.1,1.3,4.2,1.5,5.4,0
			C17.4,188.5,16.5,186.9,16,185.7z"/>
	</g>
	<g>
		<path class="st0" d="M193.2,222.2c-0.4-1.1-2.7-1-4,0.1c-1.3,1-1.6,2.6-0.7,3.7c1.1,1.3,4.2,1.5,5.4,0
			C194.6,225,193.7,223.4,193.2,222.2z"/>
	</g>
	<g>
		<path class="st0" d="M149.4,3.9c0.2,0,0.3,0,0.5,0C149.5,3.9,149.4,3.9,149.4,3.9z"/>
		<path class="st0" d="M2.7,144.7C2.7,144.7,2.7,144.7,2.7,144.7c-0.4-0.3-0.8-0.6-0.8-0.6L2.7,144.7z"/>
		<path class="st0" d="M231.3,86.3c-3.9-19.4-14.4-41.9-30.8-53.8c0.4,0,0.8,0.2,1.2,0.3C193.4,25.3,186,18.3,176,13
			c-6.1-3.2-12.1-5.5-16.2-5.9c0,0,0.6-0.1,0.6-0.1c-12.8-2.2-25.7-7-38.8-7c1,0.1,1.9,0.3,2.8,0.4C119,2.3,113.5-0.1,108,0.8
			c-6,1-11,5.1-16.9,6.4c-0.2-0.3-0.2-0.6,0-0.9c-1.2-0.4-0.8,0.4-1.7-0.7C79.9,8.1,70,10.9,61,14.8c-4.7,2-9.6,3.8-13.8,6.7
			c-4.1,2.8-6.4,8.3-10.8,10.2c-0.3,0,0.2-0.5-0.1-0.5c-10.7,7.9-21,26.2-25.7,38.4c-0.1-0.4-0.4-1.3-0.4-1.8
			C5.3,71.5,6.5,78.7,5.3,84c-1.3,6-5,11.6-5.2,17.8c-0.2,7.4,0.8,14.8,1.1,22.1c0.3,5.7-1.3,12.7,0.5,18.2
			c1.7,5.4,6.5,9.5,8.5,14.8c0.9,2.3,0.2,5.3,1,7.3c2.4,6.2,7.7,14.8,11.4,20.4c11.1,16.9,26.3,30.6,45.8,36.5
			c6.4,2,11.8,5.9,18.5,7.7c8.2,2.1,16.6,3.8,25.1,3.2c3.5-0.3,17.5,0.4,18.8-1.6c6.6,3.2,19-2,24.8-5.5c7.4-4.4,14.8-8.8,22.1-13.2
			c5.4-3.2,11.2-6,16.4-9.5c2.6-1.7,10-10.1,10.6-10.3c1.8-0.6,6.5-8.5,7.6-10.1c-0.4,0.9-0.6,1.9-1,2.8c2.6-3.7,5.7-7,7.3-11.3
			c1.6-4.5,1.8-9.1,4.1-13.4c-0.3,0-0.6,0.1-0.8,0.4c6.4-6,6.2-17.7,6.5-25.7c0.4-10.4,1.4-20.3,2.4-30.6c0.1-1.5,0.3-3.2,0.4-5
			c0.1-1.8,0.1-3.8,0.1-6c-0.1-2.2-0.2-4.6-0.5-7.1L231.3,86.3z"/>
	</g>
	<path class="st1" d="M90.4,136.4c-1.3-0.3-2.7-0.3-4.2,0c-1,0.2-2,0.3-3,0.4c-2.6,0.2-5.2,0.5-7.8,0.9c-2.1,0.3-4.3,0.5-6.4,0.7
		c-2.8,0.3-5.6,0.7-8.4,0.6c-0.9,0-2,0.2-3.1,0.3c-0.9,0.1-1.8,0.3-2.7,0.3c-0.8,0-1.6,0-2.4,0.1c-0.7,0-1.4,0.1-2,0
		c-1.2-0.1-2.4,0-3.6,0.2c-0.6,0.1-1.1,0.2-1.3-0.2c-0.1-0.1-0.5-0.2-0.9-0.2c-0.7,0-1.4,0-2.1,0.1c-0.9,0.1-1.8,0.1-2.6,0.1
		c-0.7,0-1.3-0.1-2.1,0c-1.8,0.3-3.3,0-4.7-0.3c-0.6-0.1-1.2-0.3-1.9-0.3c-0.7,0.6-0.1,1.1-0.7,1.7c0,0,0.1,0.1,0.1,0.2
		c0.2,0.3,0.7,0.6,1.3,0.7c1.1,0.2,2.3,0.4,3.5,0.5c4.3,0.3,8.8,0.1,13.3,0.1c7.2-0.1,14.4-0.9,21.7-1.8c5.9-0.8,11.7-1.8,17.4-3
		c1.1-0.2,2.1-0.5,3.2-0.7C91,136.5,90.6,136.5,90.4,136.4z"/>
	<path class="st1" d="M160.5,133.8c0-0.2-0.2-0.4-0.5-0.5c-0.4-0.3-0.9-0.6-1.3-0.9c-0.4-0.4-1-0.5-1.9-0.7
		c-2.8-0.4-5.8-0.4-8.5-0.8c-0.2,0-0.5-0.1-0.7,0c-1.3,0.4-2.5,0-3.7,0.1c-0.8,0-1.6,0.2-2.3,0c-1-0.3-2.3-0.2-3.5,0
		c-0.2,0-0.5,0.1-0.7,0.1c-2.5-0.2-5.2,0.2-7.7,0.4c-2.8,0.2-5.6,0.9-8.5,1.2c-3.1,0.2-6.3,0.5-9.5,0.9c-1.6,0.2-3.2,0.4-4.9,0.7
		c0.4,0.3,0.6,0.6,0.9,0.9c0.7,0.5,1.7,0.6,3.1,0.4c1.5-0.2,3-0.5,4.5-0.5c1.7,0,3.3,0,5-0.4c1.3-0.3,2.7-0.3,4-0.2
		c1.5,0,2.9,0,4.4-0.1c2,0,4-0.4,6-0.4c2.5-0.1,5.1-0.1,7.6-0.4c0.6-0.1,1.1,0,1.6,0.1c2.2,0.2,4.5,0.3,6.8,0.3c1.8,0,3.5,0.2,5,0.7
		c0.8,0.3,1.1,0.9,2.4,0.8c0.1,0,0.1,0.1,0.2,0.1c0.4,0.3,1.1,0.4,1.9,0.5C160.9,135.2,160.4,134.5,160.5,133.8z M151.9,133.3
		c-0.2,0-0.3,0-0.3-0.1c0,0,0-0.1,0.1-0.1c0.1,0,0.3,0,0.3,0.1C152,133.2,151.9,133.3,151.9,133.3z"/>
	<path class="st1" d="M34,130.3C34,130.3,34,130.3,34,130.3c0-0.1,0-0.2,0.1-0.3L34,130.3z"/>
	<path class="st1" d="M72.6,121.4C72.7,121.4,72.7,121.3,72.6,121.4C72.6,121.4,72.6,121.3,72.6,121.4z"/>
	<path class="st1" d="M74.9,126.2C74.9,126.2,74.9,126.2,74.9,126.2C74.9,126.2,74.9,126.2,74.9,126.2L74.9,126.2z"/>
	<path class="st1" d="M72.6,121.5c0,0-0.1,0-0.2,0C72.5,121.6,72.6,121.5,72.6,121.5z"/>
	<path class="st1" d="M79.5,129.7C79.5,129.7,79.5,129.7,79.5,129.7c0,0-0.1,0-0.1,0.1L79.5,129.7z"/>
	<path class="st1" d="M107.9,123.6C107.9,123.6,108,123.6,107.9,123.6C108,123.5,108,123.7,107.9,123.6z"/>
	<path class="st1" d="M110.2,115.4C110.2,115.4,110.3,115.4,110.2,115.4C110.3,115.4,110.3,115.4,110.2,115.4L110.2,115.4z"/>
	<path class="st1" d="M107.9,123.5c0,0,0.1-0.1,0.1-0.1C107.9,123.3,107.9,123.4,107.9,123.5z"/>
	<path class="st1" d="M97.8,122.3C97.8,122.3,97.8,122.4,97.8,122.3C97.9,122.3,97.8,122.4,97.8,122.3z"/>
	<path class="st1" d="M98.9,114.1C98.9,114.1,98.9,114.1,98.9,114.1C98.9,114.1,98.9,114.1,98.9,114.1L98.9,114.1z"/>
	<path class="st1" d="M97.8,122.2c0,0,0.1,0,0.2,0C97.9,122.1,97.9,122.2,97.8,122.2z"/>
	<path class="st1" d="M94.9,140.9c0.2-0.7,0,0.2,0-0.4C94.8,140.7,94.8,140.8,94.9,140.9z"/>
	<path class="st1" d="M98.8,109.3C98.8,109.3,98.8,109.3,98.8,109.3c0.1,0,0.1,0,0.3,0C99.1,109.3,98.8,109.3,98.8,109.3z"/>
	<path class="st1" d="M95.2,139.6c0-0.3-0.1,0.1-0.2,0.2C95,139.8,95.1,139.6,95.2,139.6z"/>
	<path class="st1" d="M130.5,113.8C130.5,113.9,130.5,113.9,130.5,113.8C130.5,113.8,130.5,113.8,130.5,113.8L130.5,113.8z"/>
	<path class="st1" d="M127.3,116.2c0-0.1,0-0.1,0-0.2C127.3,116.1,127.3,116.2,127.3,116.2z"/>
	<path class="st1" d="M137.5,114.3c-0.2,0.4,0.1-0.1-0.1,0.2C137.5,114.4,137.5,114.4,137.5,114.3z"/>
	<path class="st1" d="M135.5,125.6C135.5,125.6,135.5,125.6,135.5,125.6c0,0-0.1,0-0.1,0.1C135.4,125.7,135.4,125.7,135.5,125.6z"/>
	<path class="st1" d="M137.3,114.9c0,0-0.1,0-0.2,0C137,115.2,137.2,115,137.3,114.9z"/>
	<path class="st1" d="M149.9,119.7C149.9,119.8,149.9,119.8,149.9,119.7C149.9,119.6,150,119.8,149.9,119.7z"/>
	<path class="st1" d="M151.8,112.6C151.8,112.6,151.8,112.6,151.8,112.6C151.8,112.6,151.8,112.6,151.8,112.6L151.8,112.6z"/>
	<path class="st1" d="M149.8,119.6c0,0,0.1-0.1,0.1-0.1C149.9,119.5,149.9,119.6,149.8,119.6z"/>
	<path class="st1" d="M139.8,114.2c0,0.1,0,0.2,0,0.3C139.9,114,139.8,114.7,139.8,114.2z"/>
	<path class="st1" d="M155.9,100.3C155.9,100.3,155.9,100.3,155.9,100.3c-0.1,0-0.1,0-0.2,0.1L155.9,100.3z"/>
	<path class="st1" d="M139.9,113.5c-0.1-0.3-0.1,0.1-0.2,0.2C139.8,113.7,139.9,113.6,139.9,113.5z"/>
	<path class="st1" d="M162.6,130.9c0.1-0.7,0,0.2,0-0.4C162.6,130.7,162.6,130.8,162.6,130.9z"/>
	<path class="st1" d="M165.3,103.3C165.3,103.3,165.3,103.3,165.3,103.3c0,0,0.1,0,0.3,0L165.3,103.3z"/>
	<path class="st1" d="M162.9,129.6c0-0.4-0.1,0.1-0.2,0.2C162.8,129.8,162.9,129.6,162.9,129.6z"/>
	<path class="st1" d="M201,108c-0.3,0.3,0.1-0.1-0.1,0.2C201,108.2,201,108.1,201,108z"/>
	<path class="st1" d="M201.7,117.7C201.7,117.7,201.7,117.7,201.7,117.7c0,0-0.1,0.1-0.1,0.1C201.7,117.8,201.7,117.8,201.7,117.7z"
		/>
	<path class="st1" d="M205.3,110.4c-0.3-0.2-0.6-0.4-1-0.5c-0.3-0.1-0.6-0.2-0.8-0.1c-0.3,0-0.5,0.3-0.6,0.5l-0.2,0.5
		c0,0.1-0.1,0.2-0.1,0.3c-0.1,0.2,0,0.1,0,0.2c-0.1,0.2,0,0-0.1,0c-0.1,0.4-0.5,0.9-0.8,1.3c0,0.1-0.1,0.2,0,0.2
		c-0.4,0.4-0.9,1.1-1.5,1.4c0.3,0-0.2,0.3-0.4,0.4c-0.1,0.1-0.1,0-0.1,0c-0.4,0.3-0.6,0.4-1.1,0.6c-0.2,0.1-0.3,0.2-0.6,0.3
		c-0.2,0-0.6,0.2-0.9,0.2c0.1,0.1-0.3,0.2-0.6,0.2l0.1-0.1c-0.9,0.2-2.3,0-3.2-0.6l0-0.1c-0.9-0.6-1.2-1.8-1.4-2.9
		c0-0.3,0.1-0.8,0.1-1.1c0-0.4,0-0.6-0.1-0.9c0-0.2,0.1-0.2,0.1-0.3c0.1-0.5,0.3-1,0.4-1.4l0.1,0c0.1-0.4,0.3-1,0.6-1.3
		c0-0.1,0.3-0.5,0.1-0.4c0.1-0.2,0.2,0,0.2-0.2l0,0.2c0.4-0.5,1-1,1.5-1.1c0.2-0.1,0.4,0.1,0.4,0.3c-0.1,0.2-0.1,0.9-0.3,1.4
		c0,0.3-0.3,0.8-0.3,1.2c0,0,0,0,0,0.1l-0.1,0c0.1,0.2,0.4,0.6,0.7,0.7c0.3,0.1,0.6,0.2,0.9,0.3c0.4,0,0.4,0,0.7-0.1l0,0.1
		c0.3,0,0.4-0.1,0.5-0.2c0,0,0.1,0,0.1,0c0.1,0,0.2,0,0.4,0c-0.2,0.1-0.4,0.2-0.6,0.3c0.4,0,0.8-0.2,1-0.2c0.3-0.1,0.6-0.1,0.6-0.2
		c-0.1,0,0.2,0,0.1,0.1c0.3-0.1,0.4-0.1,0.5-0.3c0,0-0.1,0.1-0.2,0.1c0.1-0.1,0.2-0.2,0.2-0.2c0.1,0,0.2-0.1,0.3-0.1
		c0,0-0.2,0.2,0,0.2c0,0,0.1-0.1,0.3-0.2c0,0,0.1-0.1,0.1-0.1c0.3-0.2,0.6-0.5,0.8-0.7c0.3-0.7,0.5-1.4,0.5-2.2c0,0.4,0,0.7,0,1.1
		c-0.1,0.4-0.1,0.8-0.1,1c0,0.2,0,0.3,0,0.3c0.4-1.1,0.6-2.2,0.5-3.3c-0.1-1.1-0.6-2.3-1.6-3c-0.7-0.5-1.7-0.8-2.4-0.9
		c-1.5-0.2-2.9-0.2-4.4,0.1c-1.5,0.2-2.9,0.7-4.2,1.5c0.2,0,0,0.1-0.1,0.2l0,0l-0.2,0.2c-0.2,0.1-0.2,0,0-0.1
		c-1,0.6-1.8,1.4-2.6,2.2c0,0.1-0.4,0.5-0.3,0.6c0,0,0,0,0-0.1c-0.5,0.7-0.5,0.7-1,1.3c-1.3,2.2-1.8,4.8-1.4,7.3l-0.2,0.5
		c-0.4,0.9-0.9,1.7-1.4,2.5c-0.5,0.8-1.1,1.5-1.8,2.1c-0.2,0.1-0.4,0.3-0.5,0.4l0,0c0,0,0,0,0,0c0.8-4.7,1.7-9.4,2.5-14.2
		c0-0.2,0-0.4,0-0.7c0-0.3,0.1-0.6,0.1-0.8c0.1-0.4-0.4-0.7-0.6-0.8c-0.3-0.1-0.5-0.2-0.8-0.3l0.1,0c-0.9-0.2-1-0.3-2.1-0.4
		c0,0.1-0.4,0-0.3,0.1c-0.4,0.1-0.7-0.1-1.2,0c0,0,0,0.1-0.1,0c-0.7,0.2-0.6,0.2-0.6,0.1c0,0,0-0.2-0.9,0.1
		c-0.2,0.1-0.3,0.1-0.5,0.2c-0.1,0-0.2,0.1-0.2,0.2l-0.3,0.3c0,0.1-0.1,0.3-0.1,0.4l0,0.2l-0.1,0.4c-0.1,0.6-0.2,1.2-0.3,1.7
		c-0.2,1.2-0.4,2.3-0.7,3.4c0-0.1,0.1-0.2,0.1,0c-0.2,0.2-0.1,0.8-0.3,1.1c0,0,0-0.2,0-0.3c-0.3,1-0.3,1.9-0.7,2.7c0,0,0-0.1,0-0.1
		c-0.2,0.9-0.8,1.9-1,2.4c0-0.2-0.2,0.3-0.3,0.5c-0.2,0.7-1,1.4-1.4,1.9v0c-0.2,0.2-0.4,0.3-0.6,0.3c-0.1,0-0.2,0-0.2-0.1
		c-0.1-0.3-0.1-1.1,0-1.7c0.2-1.3,0.4-2.6,0.6-3.9c0.2-1.5,0.7-3.1,0.9-4.7c0-0.3-0.1-0.1,0-0.3c0.1-0.4,0.1,0,0.1-0.1
		c0-0.4,0.1-0.9,0.2-1.3c0-0.2,0.1-0.5,0.1-0.7l0-0.2c0-0.1,0-0.2,0.1-0.3c0.1-0.2-0.1-0.4-0.2-0.6c-0.1-0.1-0.2-0.2-0.3-0.3
		c-0.1-0.1-0.1-0.1-0.1,0c-1.2-0.9-2.8-0.7-4-0.7c0.4,0.1-0.7,0.1-1.1,0.3c-0.2,0-0.3,0-0.2,0c-0.4,0.1-0.7,0.2-1,0.4
		c-0.2,0.1-0.5,0.3-0.7,0.6c-0.1,0.2-0.1,0.5-0.2,0.8c-0.1,0.5,0,0.6-0.2,1.2c-0.2,0.3-0.2,1.2-0.4,1.7c0.1-0.1,0.1,0.6-0.1,1.1
		l-0.1-0.2c-0.3,1.8-0.9,4.2-1.1,6.3l-0.1,0.1c0,0.3-0.1,0.5-0.1,0.8c-0.6,0.9-1.4,1.6-2.3,1.9c-0.4,0.2-0.4,0.1-0.3-0.1
		c0.3-0.9,0.7-1.8,0.8-2.8c0-0.6,0.1-1.4,0-2.2l0.1,0c-0.1-0.6,0-0.8,0-1.5c-0.1,0,0-0.3-0.1-0.2c-0.1-0.3,0.1-0.5-0.1-0.9
		c0,0-0.1,0,0-0.1c-0.4-1,0.1,0.2-0.2-1.1c-0.6-1.7-2.1-3.2-3.8-3.7c0.1,0,0.1,0.1,0,0.1c-0.1-0.2-0.6-0.1-0.9-0.2c0,0,0.2,0,0.3,0
		c-0.8-0.1-1.5-0.1-2.2,0c0.1,0,0.1,0,0.2-0.1c-0.7,0.2-1.6,0.3-2.1,0.6c0.1-0.1-0.3,0.1-0.5,0.1c-0.4,0.4-1.3,0.6-1.7,1.1l0,0
		c-0.1,0.1-0.2,0.2-0.3,0.3c-0.1,0.1,0-0.1,0-0.1l0-0.2l0-0.1l0.1-0.5c0.1-0.3,0.2-0.6,0.3-0.9c0.4-0.9,1.2-1.8,2-2.5
		c0.1-0.1,0-0.1,0.1-0.2c0.2-0.2,0,0,0.1,0c0.4-0.4,1-0.7,1.7-1c0.1-0.1,0.2-0.2,0.2-0.2c0.8-0.2,1.7-0.8,2.5-1
		c-0.3,0,0.4-0.3,0.7-0.5c0.1-0.1,0.2,0,0.1,0c0.6-0.3,0.9-0.5,1.5-1.1c0.2-0.3,0.2-0.4,0.5-0.8c0.2-0.2,0.5-0.9,0.5-1.3
		c-0.1,0.1-0.1-0.5-0.1-0.9l0.1,0.1c-0.1-0.7-0.3-1.6-0.7-2.3c-0.2-0.4-0.5-0.7-0.8-1.1c-0.3-0.3-1.2-0.7-1.5-0.2l0,0l-0.1,0.1
		c-1,1.2-2.2,2.1-3.3,3c-0.4,0.2-0.9,0.5-1.2,0.7c-0.4,0.3-0.6,0.4-0.9,0.7c-0.2,0.1-0.3,0.1-0.4,0.1c-0.6,0.3-1.2,0.6-1.6,1l-0.1,0
		c-0.4,0.3-1,0.9-1.5,1.2c-0.1,0.2-0.6,0.6-0.3,0.4c-0.2,0.2-0.2,0-0.3,0.2l0.1-0.2c-1.1,0.9-1.8,1.8-2.6,2.9
		c-0.3,0.2-0.7,1.1-1.1,1.7c-0.2,0.4-0.6,1.1-0.6,1.4l-0.1,0c-0.2,0.5-0.5,1.3-0.8,2c-0.1,0.4,0,0.5-0.1,0.8l-0.1,0
		c-0.1,0.4,0,0.5,0.1,0.7c-0.1,0.3-0.1,0.3-0.2,0.6c0-0.3,0-0.5,0-0.8c-0.1,0.5-0.1,1-0.2,1.2c-0.1,0.4-0.1,0.7,0,0.8
		c0-0.1-0.1,0.3-0.1,0c0,0.3-0.1,0.5,0,0.7c0,0,0-0.2,0-0.3c0,0.1,0,0.4,0.1,0.4c0,0.1,0,0.2,0,0.4c-0.1,0-0.1-0.3-0.1-0.1l0.1,0.7
		c0,0.4-0.1,0.9-0.1,1.3c0,0.8,0,1.5,0,2.2c0,0,0,0,0,0.1c0-0.3-0.1-0.5-0.1-0.7c-0.1-1.1-0.3-1.5-0.3-1.5c0,1,0.1,1.9,0.1,2.8
		c-0.1,0.1-0.1,0.2-0.2,0.3c-0.1,0.2-0.1,0.3-0.3,0.5c-0.2,0.1-0.4,0.5-0.6,0.7c0.1,0-0.1,0.3-0.3,0.5l0-0.2
		c-0.6,0.7-1.8,1.3-2.8,1.9l-0.1,0c-1,0.5-2.2,0.6-3.3,0.7c-0.3,0-0.8-0.1-1.1-0.1c-0.4,0-0.5,0-0.8,0c-0.1,0-0.2-0.1-0.3-0.2
		c-0.5-0.2-0.8-0.5-1.2-0.6l0-0.1c-0.2-0.1-0.4-0.2-0.5-0.4c-0.1-0.2-0.3-0.5-0.3-0.6c-0.1,0-0.2-0.4-0.3-0.3c-0.1-0.2,0.1,0,0-0.2
		c0,0,0.2,0.2,0.2,0.2l0-0.2c0.1,0,0.1,0,0.2,0c0.2,0,0.2,0,0.5,0c0.5,0,1-0.1,1.5-0.1c0.3,0.1,1-0.1,1.6-0.2
		c0.3-0.1,0.9-0.2,1.1-0.4l0,0.1c0.4-0.1,1-0.4,1.6-0.6c0.3-0.2,0.3-0.2,0.5-0.4l0,0c0.2-0.2,0.2-0.3,0.3-0.4c0,0,0,0,0.1-0.1
		c0.1-0.1,0.2-0.1,0.3-0.2c-0.2,0.2-0.3,0.3-0.3,0.5c0.3-0.2,0.5-0.6,0.7-0.6c0.3-0.2,0.4-0.4,0.4-0.5c0,0.1,0.2-0.1,0.1,0
		c0.1-0.2,0.2-0.3,0.3-0.4c0,0-0.1,0.1-0.1,0.1c0-0.1,0.2-0.3,0.1-0.3c0.1-0.1,0.1-0.1,0.2-0.2c0.1,0-0.1,0.3,0.1,0.2
		c0,0,0.1-0.4,0.2-0.6c0.2-0.3,0.3-0.6,0.5-0.9c0.4-0.9,0.5-1.7,0.5-2.6c0,0.5,0,1.1,0,1.5c0,0.4-0.1,0.7-0.1,0.9c0,0.2,0,0.3,0,0.3
		c0.8-2.1,0.7-4.4-0.9-6.2c-0.6-0.6-1.5-1-2.1-1.3c-1.4-0.5-2.8-0.6-4.3-0.5c-1.4,0.1-2.8,0.4-4.2,1c0.2,0,0,0.1-0.1,0.2l0,0
		l-0.2,0.2c-0.2,0.1-0.1,0,0-0.1c-1.1,0.5-1.9,1.1-2.8,1.8c0,0.1-0.4,0.4-0.4,0.5c-0.1,0,0,0,0-0.1c-0.5,0.6-0.5,0.6-1.1,1.1
		c-2,2.4-2.7,5.4-2.4,8.4c0,0,0,0.1,0,0.1c-0.1,0.1-0.1,0.2-0.2,0.3c-0.5,0.6-1.2,1.2-1.9,1.6c-0.2,0.1-0.5,0.2-0.7,0.3l0,0
		c0,0,0,0,0,0c0.4-1.1,0.8-2.4,1-3.6c0.3-2.4,0.4-5.2-1.1-7.5c-0.3-0.3-0.6-0.7-1-1c-0.4-0.3-0.8-0.6-1.3-0.7l0.1,0
		c-0.8-0.3-1-0.4-2-0.6c0,0.1-0.4,0-0.3,0.1c-0.4,0.1-0.6-0.2-1.2,0c0,0,0,0.1-0.1,0c-1.3,0.4,0.2-0.2-1.4,0.2
		c-0.5,0.2-1,0.4-1.3,0.6c-0.1,0.1-0.2,0.2-0.4,0.3c-0.1,0.1,0,0,0-0.1l0-0.1l0.1-0.3c0.1-0.6,0.2-1.2,0.4-1.8c0,0.1-0.1,0.2-0.1,0
		c0.2-0.2,0.1-0.7,0.2-1.1c0,0,0,0.2,0,0.3c0.2-0.9,0.3-1.8,0.5-2.7c0,0,0,0,0,0.1c0.1-0.9,0.4-1.9,0.5-2.5c0,0.1,0.1-0.4,0.2-0.6
		c0-0.2,0-0.5,0.1-0.8c0.1-0.3,0.2-0.7,0.2-1c0.1-0.4-0.1-0.8-0.5-1l0.1,0c-0.2-0.2-0.4-0.3-0.6-0.3c-0.2-0.1-0.3-0.1-0.5-0.2
		c-0.3-0.1-0.6-0.1-1-0.2c-0.6-0.1-1.3-0.1-1.9-0.1c-0.7,0-1.3,0.1-2,0.3c-0.3,0.1-0.7,0.2-1,0.6c-0.2,0.2-0.3,0.5-0.3,0.7l-0.1,0.5
		c-0.2,1.4-0.7,2.9-0.9,4.4c0,0.3,0.1,0.1,0,0.3c-0.1,0.4-0.1,0-0.1,0.1c-0.1,0.8-0.3,1.7-0.5,2.6c0,0.1,0,0.4,0,0.3
		c-0.2,0.5-0.3,1.1-0.4,1.7c0,0.3-0.1,0.5-0.1,0.8l0,0.1c0,0-0.1,0-0.1,0c0.1,0.1,0,0.1-0.1,0.1c-0.1,0-0.6-0.1-0.8-0.1
		c-0.2,0-0.2-0.1-0.2-0.1c-0.8,0-1.3-0.1-2.3,0c-0.5,0.1-0.6,0.2-1.1,0.3c-0.4-0.1-1.1,0.4-1.6,0.5c0.2,0-0.4,0.4-0.9,0.6l0.1-0.2
		c-0.7,0.5-1.6,1.1-2.4,1.9c-0.8,0.8-1.4,1.7-1.9,2.6l-0.1,0.1c-0.9,1.8-1.6,3.8-1.7,5.8c-0.1,0.5-0.2,1.4-0.1,1.9
		c0,0.1,0,0.2,0,0.3c0,0,0,0-0.1,0.1c-0.2,0.2-0.1,0.3-0.3,0.5l-0.1,0c-0.2,0.2-0.2,0.3-0.2,0.4c0,0-0.1,0.1-0.1,0.1c0,0,0,0,0,0
		c0,0-0.1,0.1-0.1,0.1c0,0-0.1,0-0.1,0c0.1-0.2,0.2-0.3,0.3-0.5c-0.3,0.2-0.4,0.5-0.6,0.5c-0.2,0.1-0.4,0.2-0.4,0.3
		c0-0.1-0.2,0-0.1-0.1c-0.2,0.1-0.3,0.1-0.4,0.2c0,0,0.1,0,0.2-0.1c-0.1,0.1-0.2,0.1-0.2,0.2c-0.1,0-0.2,0-0.2,0.1
		c0-0.1,0.2-0.1,0-0.1c0,0-0.2,0.1-0.4,0.2c-0.1,0-0.3,0.1-0.4,0.1c0,0,0-0.1,0.1-0.1c0,0,0.1,0.1,0.1,0.1c0.1-0.1,0-0.1-0.1-0.1
		c0.7-1.6,1.2-3.1,1.6-4.8c0-0.6,0-1.5,0-2.1c-0.1-1.2-0.3-2.5-1-3.7c-0.6-1.2-1.6-2.2-2.8-2.8c0.1,0.1,0,0.1-0.2,0l0,0l-0.2,0
		c-0.2-0.1-0.1-0.1,0.1-0.1c-1-0.5-1.9-0.6-2.9-0.7c-0.1,0.1-0.5-0.1-0.6,0.1c0,0,0,0,0,0c-0.7,0.1-0.7,0.1-1.4,0
		c-2.7,0.1-5.2,1.1-7.3,2.8c-2.1,1.7-3.4,4.1-4,6.8c0,0.2,0,0.4,0,0.6c-1,1.6-2.1,3.2-3.7,4.2c-1,0.8-2.9,1.4-3.7,0.6
		c-0.9-0.6-1.6-1.9-2-3.2c-0.4-1.3-0.7-2.7-0.8-4l-0.1-1l0-0.5l0-0.1v0l0,0l0.5-0.7l0.6-0.8c0.9-1.1,1.8-2.1,2.8-3.1
		c-0.2,0.2-0.1-0.1,0.1-0.3l0.1,0l0.3-0.4c0.3-0.3,0.2-0.1,0,0.1c0.8-0.8,1.6-1.5,2.4-2.3c0.6-0.7,0.5-1.6,0.3-2.1
		c-0.2-0.6-0.5-1.1-0.9-1.6c-0.2-0.1-0.8-1-1-0.9c-0.1-0.1,0,0,0.1,0c-0.6-0.6-1-0.8-1.4-1c-0.4-0.2-0.7-0.5-1.6-0.6
		c-0.4,0-0.9,0-1.3,0.2c-0.4,0.2-0.6,0.4-0.9,0.6c-0.5,0.4-1,0.8-1.5,1.2c-1,0.8-1.9,1.8-2.7,2.7c-1,1.1-1.8,2.2-2.7,3.4
		c1.1-5.7,2.3-11.3,3.7-17c0.1-0.8,0.3-1.7,0.5-2.7c0.1-0.3,0-0.7-0.3-0.9l0.1,0.1c-0.5-0.5-0.8-0.5-1.1-0.7
		c-0.3-0.1-0.7-0.3-1.3-0.4c0,0-0.5,0-0.3,0.1c-0.4,0-0.8-0.2-1.4-0.2c0,0,0,0.1-0.1,0c-1.6,0.1,0.3-0.1-1.7-0.1
		c-0.7,0.1-1.4,0.1-2.1,0.3c-0.4,0.1-0.7,0.2-1.1,0.3c-0.4,0.1-0.7,0.3-1.1,0.7c-0.4,0.5-0.3,0.8-0.4,1.2l-0.2,1
		c-0.2,0.7-0.3,1.3-0.5,2c0-0.2,0.1-0.2,0.1,0c-0.2,0.2-0.2,0.9-0.3,1.3c0,0,0-0.3,0-0.4C40,97,39.9,98,39.6,99.1c0,0,0-0.1,0-0.1
		c-0.2,1.1-0.6,2.3-0.6,3.1c0-0.2-0.1,0.5-0.2,0.7c0,0.8-0.5,2.1-0.6,3l0,0c-0.6,2.9-1.2,6-1.6,9.1c-0.3,1.7-0.8,3.6-1,5.5
		c0,0.3,0.1,0.1,0,0.4c-0.1,0.5-0.1,0-0.1,0.2c-0.1,0.9-0.4,2.1-0.6,3.3c0,0.1,0,0.5,0,0.4c-0.3,1.3-0.4,3-0.7,4.4
		c0.2-0.4,0,0.8-0.1,1.3c0,0.3-0.1,0.3-0.1,0.2c-0.1,1-0.2,1.5-0.4,2.7c0,0.8,0.3,1.1,0.9,1.5c0.4,0.4,1.5,0.5,2.1,0.5
		c-0.2-0.1,0.7-0.1,1.4-0.1l-0.2,0.1c0.9-0.1,1.9-0.2,3-0.4c0.5-0.1,1.1-0.3,1.6-0.5c0.3-0.1,0.5-0.2,0.8-0.4
		c0.2-0.1,0.7-0.5,0.7-0.9c0-0.5,0.1-0.8,0.1-1.3l0.1-0.2c0.1-1.2,0.2-2.5,0.4-3.7c0.1-0.6,0.1-1.2,0.2-1.7c0.1-0.6,0.3-1.1,0.6-1.6
		c0.1-0.1,0.2-0.3,0.3-0.4c0.1-0.1,0.3-0.4,0.3-0.4c0.1-0.1,0.3-0.3,0.3-0.4c0-0.1,0.1-0.1,0.1,0c0,0,0,0.1,0,0.1
		c0,0.1,0.1,0.1,0.1,0.2c0.1,0.2,0.1,0.3,0.2,0.5c0.1,0.3,0.1,0.5,0.1,0.7c0.3,1.1,0.5,2.1,1,2.9l0,0.1c0.4,0.8,1.1,1.9,1.6,2.8
		c0.2,0.2,0.9,0.9,0.6,0.5c0.3,0.3,0.1,0.3,0.4,0.5l-0.3-0.2c1.6,1.7,3.7,2.2,5.9,2c0.6,0.1,2.1-0.3,3.2-0.7
		c0.6-0.3,1.8-0.8,2.1-1.3l0.1,0c0.8-0.5,1.8-1.4,2.7-2.3c0.5-0.5,0.4-0.6,0.8-1l0.1,0c0.1-0.1,0.1-0.2,0.2-0.3
		c0.1,0.2,0.1,0.3,0.2,0.5c0-0.1,0-0.1,0.1,0c-0.1,0.2,0.2,0.3,0.3,0.6c0,0-0.1-0.1-0.1-0.1c0.2,0.5,0.6,0.8,0.9,1.3
		c0,0-0.1-0.1-0.1-0.1c0.4,0.3,0.8,0.8,1.2,1c-0.1,0,0.2,0.2,0.2,0.2c0.4,0,0.8,0.5,1.3,0.5l0,0c1.3,0.4,2.7,0.5,4,0.4
		c0.7-0.1,1.6,0,2.4-0.3c0.1-0.1,0-0.1,0.1-0.1c0.2-0.1,0,0.1,0.1,0.1c0.4-0.2,0.9-0.2,1.4-0.4c0,0,0.2-0.1,0.1-0.1
		c0.6-0.1,1.2-0.6,1.8-0.8c-0.3,0,0.3-0.2,0.4-0.4c0.1-0.1,0.1,0,0.1,0c0.4-0.3,0.5-0.4,1-0.7c0.2-0.2,0.2-0.3,0.4-0.4
		c0.3-0.1,0.3-0.3,0.4-0.2c-0.1-0.1,0.3-0.2,0.6-0.1l-0.1,0.1c0.9-0.1,2.2-0.1,3.2-0.6l0.1,0c0.8-0.3,1.6-0.7,2.3-1.3
		c0.1,0.3,0.3,0.6,0.4,0.8l0,0.1c0.4,0.6,1.2,1.4,2,1.8c0.2,0.1,1,0.3,0.7,0.1c0.3,0.1,0.2,0.2,0.5,0.2c0,0-0.3,0-0.3,0
		c0.9,0.3,1.8,0.2,2.6,0.1c0.8-0.2,1.6-0.4,2.4-0.8c0.5-0.2,0.9-0.5,1.3-0.8c0.1-0.1,0,0,0,0.1l0,0.2c0,0.1,0,0.4-0.1,0.7
		c0,0.2-0.1,0.7-0.1,0.9l-0.1,0c-0.1,0.8-0.3,1.8-0.5,2.7c-0.1,0.6,0,0.6-0.1,1l-0.1,0c0,0.5,0,0.6,0.1,0.8c0,0.1,0,0.1,0,0.2
		c-0.1,0.2,0,0.3-0.1,0.6c0-0.4,0-0.7,0-1c-0.1,0.6-0.1,1.2-0.2,1.6c-0.1,0.5-0.2,0.9-0.1,1c0-0.1-0.1,0.3-0.1,0
		c-0.1,0.4-0.1,0.7-0.1,1c0,0,0-0.2,0.1-0.3c0,0.2,0,0.5,0.1,0.5c0,0.2-0.1,0.3-0.1,0.5c-0.1,0,0-0.5-0.1-0.2l0,0.9
		c-0.1,0.6-0.2,1.2-0.3,1.8c-0.1,0.8,1.7,0.9,3.4,0.7c-0.7,0.1-1.3,0.1-1.9,0.2c-0.7,0-1.2-0.1-1.6-0.3c-0.4-0.3-0.4-0.7-0.4-0.7
		c-0.1,0.3,0.2,0.7,0.4,0.8c0.2,0.2,0.4,0.2,0.6,0.3c0.4,0.1,0.7,0.1,1,0.2c0.7,0,1.3,0,1.9,0c0.6-0.1,1.3-0.2,1.9-0.3
		c0.3-0.1,0.6-0.2,1-0.3c0.2-0.1,0.3-0.1,0.5-0.3c0.2-0.2,0.4-0.4,0.4-0.6c0.2-0.9,0.4-1.8,0.5-2.7c0.2-1.2,0.4-2.7,0.6-3.7
		c0.2-1.1,0.4-2.2,0.6-3.4l0.3-1.7c0.1-0.4,0-0.2,0.1-0.3c0,0,0,0,0,0l0,0c0,0,0,0,0,0l0.1,0c2.4,0.3,4.9-0.2,7.1-1.4
		c-0.2,0.1,0-0.1,0.2-0.2l0.1,0l0.3-0.3c0.3-0.2,0.2,0,0,0.1c0.4-0.2,0.8-0.5,1.2-0.8c0.2-0.1,0.4-0.3,0.5-0.5l0.1-0.1c0,0,0,0,0,0
		c0.8,0,1.8,0,2.7-0.3c0.1-0.1,1-0.3,1-0.4c0.1,0,0,0,0,0.1c1.2-0.5,1.3-0.6,2.4-1.2c0.3-0.2,0.6-0.5,0.9-0.7
		c0.1,0.1,0.2,0.3,0.3,0.4c1,1.2,2.3,2.1,3.8,2.6c0.5,0,1.1,0.2,1.7,0.2l0,0c0.5,0,0.6,0.1,1.2,0.2c0-0.1,0.2,0,0.2-0.1
		c0.2,0,0.4,0.2,0.7,0.1c0,0,0-0.1,0.1,0c0.8-0.1-0.1,0.1,0.8,0.2c1.4-0.1,2.7-0.3,4-0.6c-0.1,0-0.1,0,0-0.1
		c0.2,0.1,0.4-0.1,0.7-0.2c0,0-0.1,0.1-0.2,0.1c0.6-0.1,1-0.4,1.6-0.5c0.5-0.3,1.1-0.4,1.4-0.7c0,0.1,0.2-0.1,0.3-0.1
		c0.2-0.4,0.9-0.5,1.2-0.9l0,0c0.8-0.6,1.6-1.4,2.2-2.3c0.1,0.2,0.2,0.5,0.4,0.7c0.6,0.8,1.6,1.6,2.5,2c1.8,0.8,3.7,0.8,5.5,0.7
		c1.8-0.2,3.7-0.8,5.2-1.8c-0.2,0.1,0-0.1,0.1-0.2h0.1l0.2-0.2c0.2-0.2,0.2,0,0,0.1c0.3-0.2,0.6-0.4,0.9-0.6l0.2-0.2l0.1-0.1
		c0,0,0,0,0,0l0.1,0c0.7,0,1.4,0,2.1-0.1c0.1-0.1,0.8-0.1,0.8-0.3c0.1,0,0,0,0,0.1c1-0.3,1-0.3,1.9-0.6c0.3-0.1,0.5-0.3,0.7-0.4
		c0.1,0.3,0.3,0.7,0.5,1c0.3,0.5,1.1,1.2,1.6,1.4c0.4,0.1,0.7,0.2,0.9,0.2c0.2,0,0.4,0,0.7,0c0.3,0,0.5,0.1,0.6,0.1
		c1,0,1.9,0,2.6-0.4l0,0.1c0.7-0.3,1.7-0.8,2.4-1.3c0.2-0.2,0.8-0.8,0.5-0.6c0.2-0.2,0.2-0.1,0.4-0.3l-0.2,0.3
		c0.6-0.5,1.1-1.1,1.5-1.7c0,0.1,0,0.2-0.1,0.3c-0.2,0.5-0.4,1.7-0.7,2.7c-0.1,0.3,0,0.7-0.4,0.7c-0.4,0.1-0.7,0.2-0.9,0.4l0-0.1
		c-0.2,0.1-0.5,0.1-0.7,0.2c-1,0.1-2,0.3-3,0.8c-0.4,0.2-0.9,0.6-1.3,1c-0.4,0.3-0.7,0.6-0.9,0.7c-0.5,0.3-0.8,0.7-0.7,0.8
		c0.1-0.1-0.3,0.2-0.1,0c-0.3,0.3-0.5,0.6-0.6,0.8c0,0,0.1-0.2,0.2-0.3c-0.1,0.2-0.2,0.4-0.2,0.5c-0.1,0.2-0.2,0.3-0.3,0.5
		c-0.1,0,0.1-0.5,0-0.2c0,0-0.2,0.5-0.2,0.9c-0.2,0.6-0.3,1.2-0.4,1.9c-0.1,1.6,0.5,2.7,1.5,3.6c-0.6-0.4-1-1-1.3-1.5
		c-0.3-0.7-0.4-1.3-0.5-1.6c-0.1-0.3-0.1-0.5-0.1-0.5c0,1,0.2,2,0.8,2.9c0.6,0.8,1.4,1.4,2.2,1.8c1.8,0.8,3.7,0.6,5.6,0.4
		c1.3-0.3,2.9-1,3.9-1.8c0.9-0.9,1.6-1.9,2.1-3c0.7,0.2,1.3,0.4,2,0.7c3.1,1.2,6.1,2.2,9.5,2.2c5-0.1,8.2-2.2,9.6-3.5
		c1.6-1.5,3.2-3.1,3.9-5.5c0.4-1.4-0.4-3.3-1.9-2.9c-0.2,0.1-0.9,0.6-0.7,1c0.3,0.5,1-0.8,1.7,0.1c0.3,0.4,0.4,1.2,0,2.1
		c-0.6,1.1-1.3,1.6-2.1,2.2c-2.1,1.5-5.4,2.3-7.9,2.3c-2.8,0-5.1-0.4-12.3-4c0,0,0,0,0,0l0.2-0.9c0,0,0,0,0,0l0.2-0.1
		c1.1-0.6,2.2-1.3,3.1-2.2c-0.2,0.2,0-0.1,0.1-0.3l0.1,0l0.2-0.3c0.3-0.3,0.2-0.1,0,0.1c1.2-1.2,2-2.5,2.8-3.8
		c1.5,1.8,3.6,2.9,6,3.1c0.5-0.1,1.2,0,1.7-0.2l0,0.1c0.5-0.1,0.6,0,1.2,0c0-0.1,0.2,0,0.1-0.1c0.2-0.1,0.4,0.1,0.7,0
		c0,0,0-0.1,0.1,0c0.8-0.3-0.1,0.1,0.9,0c1.4-0.4,2.7-1,3.8-1.7c-0.1,0-0.1,0,0-0.1c0.2,0.1,0.4-0.3,0.6-0.4c0,0-0.1,0.1-0.1,0.2
		c0.5-0.3,0.9-0.7,1.4-1c0.4-0.4,0.9-0.8,1.1-1.1c0,0.1,0.2-0.2,0.3-0.2c0.1-0.4,0.7-0.8,0.9-1.3l0,0c0.3-0.5,0.7-1,0.9-1.6
		c0.1-0.3,0.3-0.6,0.4-0.9l0.4-1C206,111.2,205.7,110.7,205.3,110.4z M201.4,105C201.4,105,201.4,105,201.4,105
		c-0.1-0.5-0.2-1-0.5-1.5C201.2,103.9,201.4,104.5,201.4,105z M200.6,102.9c0.2,0.2,0.1,0.2,0.1,0.2c-0.2-0.2-0.4-0.4-0.7-0.6
		C200.2,102.6,200.4,102.7,200.6,102.9z M199.2,109.1c0,0,0.1,0,0.1-0.1C199.3,109.1,199.3,109.1,199.2,109.1
		C199.2,109.1,199.2,109.1,199.2,109.1z M192.7,101.7C192.8,101.8,192.7,101.8,192.7,101.7c0.6-0.2,1.3-0.1,1.7-0.4l0.2-0.1
		c0.2,0,0.2,0.1,0.3,0.1c0.1-0.1,0.6-0.1,0.7-0.1c0.1,0,0,0,0,0.1c0.3,0,0.6-0.1,0.9-0.1l-0.1,0c0.5,0.1,1.1,0.2,1.7,0.3
		c-0.8-0.2-1.7-0.2-2.8-0.2c-1.2,0.1-2.3,0.3-3.3,0.7C192.2,102,192.5,101.9,192.7,101.7z M180.3,112.7l0,0.2c0,0,0,0,0,0
		C180.3,112.8,180.3,112.7,180.3,112.7z M179.8,115.7c0.1-0.6,0.2-1.2,0.3-1.8c0,0.2,0,0.5,0,0.7c-0.1,0.2-0.2,1-0.2,1.3
		c-0.1,0.1,0-0.2,0-0.3l-0.1,0.4C179.8,115.8,179.8,115.8,179.8,115.7z M137.8,111.5c-0.1-0.5-0.2-1.1-0.5-1.6
		C137.6,110.4,137.7,110.9,137.8,111.5z M137.1,109.3c0.1,0.2,0.1,0.2,0.1,0.2c-0.1-0.2-0.3-0.4-0.5-0.6
		C136.8,109,136.9,109.2,137.1,109.3z M136.4,115.9c0,0,0.1-0.1,0.1-0.1C136.4,115.9,136.4,115.9,136.4,115.9
		C136.3,116,136.3,116,136.4,115.9z M135.5,116.8c0.1-0.1,0.2-0.2,0.3-0.3C135.7,116.7,135.6,116.8,135.5,116.8
		C135.5,116.8,135.5,116.8,135.5,116.8z M116.9,118L116.9,118C116.9,118,116.9,118,116.9,118C116.9,118,116.9,118,116.9,118z
		 M59.6,105.3C59.7,105.3,59.6,105.3,59.6,105.3C59.6,105.3,59.6,105.3,59.6,105.3C59.6,105.2,59.6,105.3,59.6,105.3z M58.3,111.6
		c0,0.1-0.1,0.1-0.1,0.1c0,0-0.1,0-0.1,0C58.2,111.7,58.3,111.7,58.3,111.6z M49,103L49,103C49,103,49,103,49,103
		C49,103,49,103,49,103z M48.2,106.5c0.1-0.7,0.3-1.3,0.4-2c0,0.2,0,0.4,0,0.6c-0.1,0.3-0.2,1.2-0.3,1.5c-0.1,0.1,0.1-0.3,0-0.3
		l-0.2,0.4C48.2,106.6,48.2,106.5,48.2,106.5z M47.5,109.7C47.5,109.7,47.5,109.8,47.5,109.7c0,0.3-0.1,0.4-0.1,0.5
		C47.5,110.1,47.5,109.9,47.5,109.7z M47.9,112.5c-0.1,0.1-0.2,0.3-0.3,0.4C47.6,112.8,47.7,112.7,47.9,112.5L47.9,112.5z
		 M48.9,111.1C48.9,111.1,48.9,111.1,48.9,111.1C48.9,111.1,48.9,111.1,48.9,111.1C48.9,111.1,48.9,111.1,48.9,111.1z M49.6,110.2
		c0.1-0.1,0.2-0.2,0.2-0.3c0,0,0,0,0,0C49.8,109.9,49.7,110,49.6,110.2z M50.2,109.4c0.1-0.1,0.1-0.2,0.3-0.3c0,0,0,0,0,0
		C50.4,109.2,50.3,109.3,50.2,109.4z M51.2,108.3c0.2-0.2,0.4-0.4,0.5-0.6c0,0,0.1,0,0.1-0.1C51.5,107.9,51.4,108.1,51.2,108.3z
		 M53.8,116.9c0.2-0.3,0.4-0.6,0.7-0.9c-0.1,0.1-0.2,0.3-0.3,0.4c-0.1,0.2-0.4,0.4-0.3,0.7c0,0.1,0,0-0.1-0.1
		c0.2,1.3,0.2,2.7,0.6,3.6l0.2,0.3c0,0.3,0,0.3,0,0.5c0.1,0.2,0.3,1.1,0.4,1.3c0,0.1-0.1,0-0.1,0c0.2,0.6,0.5,1.2,0.7,1.7l-0.1-0.1
		c0.3,0.7,0.6,1.4,1.2,2c0.4,0.4,0.9,0.6,1.5,0.7C55.6,126.7,54.2,121.8,53.8,116.9z M58.6,126.9L58.6,126.9L58.6,126.9
		C58.6,126.9,58.6,126.9,58.6,126.9z M61.9,125.6c0.4-0.3,0.7-0.6,0.9-0.9c0.3-0.3,0.3-0.3,0.4-0.3
		C62.8,124.9,62.3,125.3,61.9,125.6z M64.9,122.2c-0.4,0.7-0.8,1.3-1.3,1.8C64,123.4,64.5,122.7,64.9,122.2
		C64.9,122.1,64.9,122.2,64.9,122.2z M67,117.1L67,117.1C67,117.1,67,117.1,67,117.1C67,117.1,67,117.1,67,117.1z M67.9,115.9
		c-0.2,0.2-0.4,0.5-0.5,0.7c0-0.1,0.1-0.2,0.1-0.3C67.5,116.2,67.7,115.9,67.9,115.9c0-0.1-0.2,0-0.2,0L67.9,115.9
		C67.9,115.8,67.9,115.8,67.9,115.9z M68.8,114.8C68.8,114.8,68.8,114.8,68.8,114.8c0.1-0.1,0.1-0.1,0.2-0.2
		C68.9,114.7,68.9,114.8,68.8,114.8z M70.8,113.3C70.9,113.3,70.9,113.3,70.8,113.3C70.9,113.3,70.9,113.3,70.8,113.3
		C70.9,113.3,70.9,113.3,70.8,113.3z M77.4,117.4C77.4,117.4,77.4,117.4,77.4,117.4C77.4,117.4,77.4,117.4,77.4,117.4
		C77.4,117.4,77.4,117.4,77.4,117.4z M76.8,116.1C76.8,116.1,76.8,116.2,76.8,116.1C76.8,116.2,76.8,116.1,76.8,116.1
		C76.8,116.1,76.8,116.1,76.8,116.1z M76.7,116.1C76.7,116.1,76.7,116.1,76.7,116.1L76.7,116.1C76.7,116,76.7,116.1,76.7,116.1z
		 M76.5,115.9C76.5,115.9,76.5,115.9,76.5,115.9C76.4,115.9,76.4,115.9,76.5,115.9C76.5,115.9,76.5,115.9,76.5,115.9z M75.1,115.9
		C75.1,115.9,75.1,115.9,75.1,115.9C75.1,116,75.1,116,75.1,115.9C75.1,115.9,75.1,115.9,75.1,115.9z M74.2,116.7
		C74.2,116.7,74.2,116.7,74.2,116.7C74.2,116.7,74.2,116.7,74.2,116.7C74.2,116.7,74.2,116.7,74.2,116.7z M73.5,112.1
		C73.5,112.1,73.5,112.1,73.5,112.1c0,0-0.1,0-0.1,0.1C73.4,112.2,73.5,112.1,73.5,112.1z M73.5,118L73.5,118
		C73.5,118.2,73.5,118.1,73.5,118c0,0.2-0.1,0.3-0.1,0.3c0,0,0,0-0.1,0c0,0.1,0,0.2,0,0.3l0,0c-0.1,0.1-0.2,0.3-0.3,0.5
		c0.2-0.6,0.4-1,0.6-1.5C73.7,117.8,73.4,117.8,73.5,118z M73.8,117.3c0,0.1-0.1,0.2-0.1,0.3c0,0,0,0,0,0
		C73.7,117.5,73.8,117.3,73.8,117.3z M72.8,112.4C72.8,112.4,72.8,112.4,72.8,112.4c0,0-0.1,0-0.1,0.1
		C72.7,112.4,72.8,112.4,72.8,112.4z M72.4,112.5C72.4,112.5,72.4,112.5,72.4,112.5c0,0.1-0.1,0.1-0.2,0.1
		C72.3,112.6,72.4,112.5,72.4,112.5z M72.9,119.6c0,0.1,0,0.1,0,0.2c0,0.1,0,0.1-0.1,0C72.8,119.8,72.9,119.7,72.9,119.6z M72.8,120
		c0,0.1,0,0.2-0.1,0.3C72.7,120.2,72.7,120.1,72.8,120z M72.4,121.9C72.4,121.9,72.4,121.9,72.4,121.9
		C72.4,121.9,72.4,121.9,72.4,121.9L72.4,121.9z M71.2,113.1c-0.1,0-0.1,0.1-0.2,0.1C71,113.2,71,113.1,71.2,113.1L71.2,113.1z
		 M77.1,120.2c0.1,0.1,0,0.2-0.1,0.3c0.1,0,0,0.1,0.1,0.1c0.1,0.1-0.1,0.1-0.1,0.2c0,0,0.1,0,0,0c0.1,0.2,0,0-0.2,0.2
		c0,0.4,0,0.8-0.1,1.1c0,0,0.1,0,0.1,0c-0.2,0,0,0.1-0.1,0.2c0,0,0,0,0-0.1c-0.1,0.2,0,0.2-0.1,0.2c0,0,0,0,0,0
		c0.1,0.1-0.1,0-0.1,0.1c0-0.1,0,0-0.1,0c-0.1,0.2-0.4,0.1-0.5,0.3l0,0c-0.4,0.3-0.8,0.8-1,1.3c-0.1,0.3-0.3,0.6-0.3,0.9
		c0,0.1,0.1,0,0.1,0.1c0,0.1-0.1,0-0.1,0c0.1,0.2,0,0.4,0,0.6c0,0,0.1,0.1,0.1,0c0,0.1,0,0.3,0.1,0.3c0,0,0.1,0.1,0,0.1
		c0.1,0,0.1,0,0.1,0c0,0,0,0,0,0.1c0,0-0.1,0-0.1,0c0,0,0,0.1-0.1,0.1c0,0,0,0.1-0.1,0.1c-0.1-0.1-0.1,0.1-0.2,0.1
		c0.1,0.1,0,0.2-0.1,0.2l0-0.1c-0.2,0.2-0.5,0.1-0.8,0.2l0-0.1c-0.3,0-0.5-0.1-0.7-0.2c0-0.1-0.1-0.2-0.1-0.3
		c-0.1-0.1-0.1-0.1-0.2-0.1c0,0,0-0.1,0-0.1c0-0.1,0-0.3-0.1-0.4l0.1,0c-0.1-0.1-0.2-0.3-0.1-0.4c-0.1,0-0.1-0.2-0.2-0.1
		c0-0.1,0.1,0,0-0.1l0.1,0c0-0.3,0-0.6-0.1-0.9c0.1-0.1,0-0.3,0.1-0.4c-0.1-0.1,0.1-0.3-0.1-0.4l0.1,0c0-0.1,0-0.3,0.1-0.5
		c0-0.1-0.1-0.1-0.1-0.2l0.1,0c0-0.1-0.1-0.1-0.2-0.2c0,0,0,0,0-0.1c0,0,0,0,0-0.1c0,0.1,0.1,0.1,0.2,0.2c0-0.1-0.1-0.2,0-0.3
		c0-0.1,0-0.2-0.1-0.2c0,0,0.1-0.1,0.1,0c0-0.1,0-0.1,0-0.1c0,0,0,0,0,0c0,0-0.1-0.1-0.1-0.1c0,0,0-0.1,0-0.1c0.1,0,0.1,0.1,0.1,0
		l-0.1-0.2c0-0.1,0-0.2,0.1-0.3c0-0.2,0.1-0.4,0.1-0.7c0,0.1,0,0.2,0,0.4c0,0.3,0.3,0.4,0.3,0.4c0-0.6,0.2-1.1,0.5-1.7
		c0-0.2,0.1-0.5,0.2-0.6c0.2-0.7,0.7-1.3,1.1-1.9c0,0-0.1-0.1-0.1-0.1l0,0l0-0.1c0,0,0.1,0,0.1,0.1c0.2-0.2,0.3-0.4,0.5-0.5
		c0-0.1,0.1-0.1,0.1-0.2c0,0,0,0,0,0c0.1-0.1,0.1-0.1,0.3,0c0.3,0,0.5,0,0.6,0.2c0.2,0.1,0.3,0.4,0.4,0.7c0.2,0.7,0.3,1.5,0.3,2.3
		C77.1,119.8,77,120,77.1,120.2L77.1,120.2z M77,116.5L77,116.5C77.1,116.5,77.1,116.5,77,116.5C77.1,116.6,77,116.6,77,116.5z
		 M77.1,116.6C77.1,116.6,77.1,116.6,77.1,116.6C77.1,116.6,77.1,116.6,77.1,116.6C77.1,116.6,77.1,116.6,77.1,116.6z M77.3,117.9
		C77.4,117.9,77.3,118,77.3,117.9l0.1,0c0,0,0,0,0,0c0,0.1,0,0.2,0,0.3c0,0-0.1-0.1-0.1-0.1C77.4,118.1,77.4,118,77.3,117.9z
		 M77.5,118.4L77.5,118.4C77.5,118.4,77.5,118.4,77.5,118.4C77.5,118.4,77.5,118.4,77.5,118.4z M77.5,111.6c0.1,0,0.1,0,0.2,0
		c0,0,0,0,0,0C77.6,111.6,77.5,111.6,77.5,111.6z M81,112.4c0,0-0.1,0-0.1-0.1C80.9,112.4,81,112.4,81,112.4
		C81,112.4,81,112.4,81,112.4z M84.5,121c0,0.2-0.1,0.2-0.1,0.2c0.1-0.3,0.1-0.5,0.1-0.8C84.5,120.6,84.5,120.8,84.5,121z
		 M83.3,114.2C83.3,114.3,83.2,114.3,83.3,114.2c0.4,0.4,0.4,1,0.8,1.3l0.1,0.1c0,0.1-0.1,0.1,0,0.3c0.1,0.1,0.2,0.5,0.3,0.5
		c0,0.1-0.1,0-0.1,0c0.1,0.2,0.2,0.5,0.3,0.8l-0.1-0.1c0,0.5,0,1,0,1.5c-0.1-2-0.7-3.7-1.9-5C82.9,113.8,83.1,114,83.3,114.2z
		 M83,125.3c0,0,0-0.1,0.1-0.1c0.2,0-0.1,0,0.1,0c0,0-0.1,0-0.1,0c0.4-0.8,0.7-1.6,0.9-2.4c-0.2,0.6-0.4,1.2-0.5,1.7
		c-0.1,0.4-0.2,0.7-0.1,0.8C83.2,125.3,83.1,125.3,83,125.3z M95.5,137.7c0-0.1,0-0.1,0-0.2c0,0,0,0,0,0
		C95.6,137.6,95.5,137.6,95.5,137.7z M94,119.3L94,119.3C94,119.3,94,119.3,94,119.3C94,119.3,94,119.3,94,119.3z M93.6,121.2
		C93.6,121.2,93.6,121.2,93.6,121.2L93.6,121.2C93.6,121.2,93.6,121.2,93.6,121.2z M93.6,122.2C93.6,122.2,93.6,122.2,93.6,122.2
		C93.6,122.2,93.6,122.2,93.6,122.2C93.6,122.2,93.6,122.2,93.6,122.2z M93.6,121.8C93.6,121.8,93.6,121.7,93.6,121.8
		C93.6,121.7,93.6,121.8,93.6,121.8C93.6,121.8,93.6,121.8,93.6,121.8z M93.6,121.3L93.6,121.3C93.6,121.3,93.6,121.3,93.6,121.3
		C93.7,121.3,93.7,121.3,93.6,121.3z M93.8,120.4C93.8,120.3,93.8,120.3,93.8,120.4C93.8,120.3,93.8,120.3,93.8,120.4
		C93.8,120.3,93.8,120.4,93.8,120.4z M93.9,119.8c0-0.1,0-0.2,0.1-0.3c0,0,0.1,0.1,0.1,0.1c0,0,0,0.2,0,0.2
		C93.9,119.9,94,119.8,93.9,119.8L93.9,119.8C93.9,119.8,93.9,119.8,93.9,119.8z M94.2,124.6C94.2,124.6,94.2,124.6,94.2,124.6
		C94.2,124.6,94.3,124.6,94.2,124.6C94.3,124.6,94.2,124.6,94.2,124.6z M95.2,125c-0.1,0-0.2,0-0.3,0C95,124.9,95.1,124.9,95.2,125
		C95.2,124.9,95.2,124.9,95.2,125c0-0.1,0.1-0.1,0.2-0.1C95.4,124.9,95.3,125,95.2,125z M95.6,124.9c0,0,0.1,0,0.1-0.1l0-0.1
		c0.1,0,0.1,0.1,0.1,0.1c0-0.1,0.2-0.1,0.1-0.2c0,0,0,0,0,0.1c0.1,0,0.1-0.2,0.2-0.2l0,0c0.2,0,0.4-0.1,0.5-0.2
		C96.3,124.6,96,124.8,95.6,124.9z M96.6,123.6c-0.1,0.1-0.2,0.3-0.4,0.4c-0.3,0.2-0.6,0.3-0.9,0.3c-0.3,0-0.4,0-0.6-0.1
		c0,0-0.1,0.1-0.1,0.1l0,0l-0.1,0c0,0,0-0.1,0.1-0.1c-0.1-0.1-0.3-0.3-0.3-0.6c-0.1,0,0-0.1-0.1-0.1c0,0,0,0,0,0
		c-0.1-0.2-0.1-0.2,0-0.4c0-0.8,0-1.5,0.2-2.4c0.1-0.9,0.2-1.7,0.4-2.5c-0.1-0.2,0-0.3-0.1-0.5l0,0c0-0.2,0.1-0.2,0.2-0.3
		c-0.1,0,0-0.1-0.1-0.1c-0.1-0.1,0.2-0.1,0.1-0.2c0,0-0.1,0,0,0c0-0.2,0,0.1,0.2-0.2c0.1-0.4,0.2-0.8,0.4-1.1c0,0-0.1,0-0.1,0
		c0.2,0,0-0.1,0.1-0.2c0,0,0,0.1,0,0.1c0.1-0.1,0.1-0.3,0.3-0.4c0,0,0,0,0,0c0-0.2,0.2-0.2,0.2-0.4c0,0.1,0.1,0,0.1,0
		c-0.1-0.2,0.2-0.2,0.2-0.3l0,0c0.3-0.3,0.6-0.4,0.9-0.6c0.2-0.1,0.5,0,0.7-0.1c0,0,0-0.1,0-0.1c0.1,0,0,0.1,0,0.1
		c0.1-0.1,0.3,0,0.4,0c0,0,0,0,0-0.1c0,0.1,0.2,0,0.2,0.1C99,114,99,114,99,114c0,0-0.1,0-0.1,0.1c0,0,0,0.1,0,0.1
		c0,0,0.1,0,0.1,0.1c-0.1,0,0,0.2-0.1,0.3c0.1,0,0.1,0.1,0.1,0.2l-0.1-0.1c0,0.3-0.2,0.7-0.1,1.1l-0.1,0c0,0.4-0.1,0.7,0,1.1
		c-0.1,0.1-0.1,0.2-0.1,0.3c0,0.1,0,0.2,0.1,0.3c0,0-0.1,0.1-0.1,0.1c0,0.2-0.2,0.3-0.1,0.4l-0.1,0c0,0.1,0.1,0.3,0,0.5
		c0.1,0,0,0.2,0.1,0.1c0,0.1-0.1,0-0.1,0.1l-0.1-0.1c-0.1,0.3-0.1,0.6-0.1,0.9c-0.1,0.1,0,0.3-0.1,0.5c0,0.1-0.1,0.3,0.1,0.4l-0.1,0
		c0,0.1-0.1,0.3-0.1,0.5c0,0.1,0.1,0.1,0.1,0.2l-0.1,0c0,0.1,0.1,0.1,0.2,0.2c0,0,0,0,0,0.1c0,0,0,0.1,0,0.1c0-0.1-0.1-0.1-0.2-0.2
		c0,0.1,0.1,0.2,0,0.3c0,0.1,0,0.2,0.1,0.2c0,0-0.1,0.1-0.1,0c0,0.1,0,0.1,0,0.1c0,0,0,0,0,0c0.1,0,0.1,0.1,0.1,0.1c0,0,0,0.1,0,0.1
		c-0.1,0-0.1-0.1-0.1,0l0.1,0.2c0,0.1,0,0.2-0.1,0.3c-0.1,0.2-0.2,0.3-0.3,0.5c0-0.1,0-0.1,0-0.2c0-0.3-0.2-0.4-0.2-0.4
		C97.4,122.8,97,123.3,96.6,123.6z M98.1,121.8L98.1,121.8C98.1,121.8,98.1,121.8,98.1,121.8C98.1,121.8,98.1,121.8,98.1,121.8z
		 M97.1,123.9c0-0.1,0.1-0.1,0.1-0.2c0-0.1,0.1,0,0.1,0C97.2,123.8,97.1,123.9,97.1,123.9z M100.6,141.2c-0.5,0.2-0.9,0.2-1.4,0.3
		c-0.1,0-0.2,0-0.3,0c1.2-0.2,2.3-0.5,2.6-0.9C101.4,140.9,100.9,141.1,100.6,141.2z M101.7,140.4
		C101.7,140.4,101.7,140.4,101.7,140.4c0,0,0-0.1,0-0.2L101.7,140.4z M102,139.1c0,0.3-0.1,0.3-0.1,0.3c0.1-0.5,0.2-1,0.2-1.4
		C102,138.4,102,138.8,102,139.1z M105.5,117.2L105.5,117.2C105.5,117.2,105.5,117.3,105.5,117.2
		C105.5,117.2,105.5,117.2,105.5,117.2z M105.4,117.5c0,0,0.1,0.1,0.1,0.1c0,0,0,0.2,0,0.2c-0.1,0,0,0,0-0.1l-0.1,0.1c0,0,0,0,0,0
		C105.4,117.7,105.4,117.6,105.4,117.5z M105.3,118.3C105.3,118.3,105.3,118.3,105.3,118.3C105.3,118.4,105.3,118.4,105.3,118.3
		C105.3,118.4,105.3,118.3,105.3,118.3z M105.1,119.2C105.1,119.2,105.1,119.2,105.1,119.2C105.1,119.2,105.1,119.2,105.1,119.2
		C105.1,119.2,105.1,119.2,105.1,119.2z M105.1,119.3C105.2,119.3,105.2,119.3,105.1,119.3L105.1,119.3
		C105.1,119.4,105.1,119.3,105.1,119.3z M105.1,119.8C105.1,119.8,105.1,119.9,105.1,119.8C105.1,119.9,105.1,119.9,105.1,119.8
		C105,119.9,105,119.8,105.1,119.8z M105,120C105,120,105,120,105,120C105,120,105,120,105,120C105,120,105,120,105,120z M105,120.2
		C105,120.3,105,120.3,105,120.2C105,120.3,105,120.3,105,120.2C105,120.3,105,120.3,105,120.2z M104.7,121.7
		C104.7,121.8,104.7,121.8,104.7,121.7C104.7,121.8,104.7,121.8,104.7,121.7C104.7,121.8,104.7,121.8,104.7,121.7z M104.5,123
		C104.5,123.1,104.6,123.1,104.5,123C104.6,123.1,104.5,123.1,104.5,123C104.5,123.1,104.5,123.1,104.5,123z M104.4,123.9
		c0,0.1,0,0.2,0,0.3c0,0,0,0-0.1,0c0.1,0.1-0.1,0.2,0.1,0.2c0.1,0,0.2,0.1,0.3,0l0.1-0.1c0,0,0,0.1,0,0.1c0.1,0,0.2,0,0.2-0.1
		c0,0,0,0,0,0.1c0.1,0,0.2-0.1,0.3-0.1l0,0c0.2,0.1,0.4,0.1,0.6,0.1c-0.5,0-1.1,0-1.6-0.2C104.4,124.2,104.4,124,104.4,123.9z
		 M105.9,128.2C105.8,128.2,106,128.2,105.9,128.2c-0.5,0-1,0-1.5-0.1c-0.2,0-0.5-0.1-0.7-0.1c0,0.2,0,0.5,0,0.6l0,0.3
		c-0.1,0.2-0.1,0.2-0.2,0.4c0,0.2-0.1,1-0.1,1.1c-0.1,0.1,0-0.1-0.1-0.1c-0.1,0.5-0.1,1-0.2,1.5l0-0.1c-0.2,0.9-0.4,1.9-0.6,2.9
		c0.4-2.2,0.7-4.4,1.1-6.7c1.2,0.2,2.4,0.2,3.7,0C106.9,128.1,106.4,128.2,105.9,128.2z M106.5,124.4c0.1,0,0.2-0.1,0.2-0.1
		c0.1,0,0.1,0,0.1,0C106.7,124.4,106.6,124.4,106.5,124.4z M110.3,115.4C110.3,115.5,110.3,115.5,110.3,115.4
		c-0.1,0.2-0.1,0.3-0.1,0.4c0,0.1,0.1,0.1,0.1,0.2c-0.1,0,0,0.2-0.1,0.3c0.1,0,0.2,0.1,0.1,0.2l-0.1-0.1c0,0.3-0.2,0.7-0.1,1.1
		l-0.1,0c0,0.4-0.2,0.7-0.2,1.1c-0.1,0.1-0.1,0.2-0.2,0.3c0,0.1,0,0.2,0.1,0.3c0,0.1-0.1,0.1-0.1,0.1c0,0.1-0.1,0.2-0.1,0.2
		c0,0,0,0.1,0,0.1l-0.1,0c0.1,0.1,0,0.2-0.2,0.2c0,0.1-0.2,0.1-0.1,0.2c-0.1,0-0.1-0.1-0.1,0l0-0.1c-0.4,0.1-0.7,0.3-0.9,0.6
		c-0.2,0-0.2,0.3-0.4,0.4c0,0.1-0.2,0.3-0.1,0.4l-0.1,0c-0.1,0.2-0.1,0.4-0.2,0.6c0,0.1,0.1,0.1,0.1,0.2l-0.1,0
		c0,0.1,0.1,0.1,0.2,0.2c0,0,0,0,0,0c0,0.1,0,0.1,0,0.1c0-0.1-0.1-0.1-0.2-0.2c0,0.1,0.2,0.2,0.1,0.3c0,0.1,0,0.2,0.1,0.2
		c0,0,0,0.1-0.1,0c0,0.1,0.1,0.1,0.1,0.1c0,0,0,0,0,0c0.1,0,0.1,0.1,0.2,0c0,0,0,0.1,0,0.1c0,0-0.1,0-0.1,0l0.2,0.1
		c0,0.1,0.1,0.2,0.2,0.3c-0.2,0.2-0.4,0.3-0.6,0.5c0.1-0.1,0.2-0.2,0.3-0.3c0.2-0.2,0-0.5,0-0.5c-0.4,0.5-0.9,0.7-1.5,0.6
		c-0.2,0.1-0.4,0.1-0.6,0.1c-0.2,0-0.4,0-0.6,0c-0.1,0-0.1,0,0-0.1c0,0,0,0,0,0c0,0.1,0-0.2,0-0.2c0-0.1,0-0.2,0-0.3
		c0,0-0.1,0-0.1-0.1l0,0l-0.1-0.1c0-0.1,0.1,0,0.1,0c0.1-0.4,0.1-0.7,0.2-1c-0.1,0,0-0.2-0.1-0.2c0,0,0,0,0,0c0-0.2,0-0.3,0.1-0.5
		c0.2-0.9,0.3-1.8,0.5-2.7c0.1-0.9,0.2-1.8,0.3-2.8c-0.1-0.2,0-0.4-0.1-0.5l0,0c0-0.1,0,0,0.2-0.1c0,0,0-0.1-0.1-0.1
		c0-0.1,0.2,0,0.2-0.1c0,0,0,0,0,0c0.1-0.2,0,0.1,0.3-0.1c0.2-0.3,0.5-0.7,0.8-0.8c0,0-0.1,0,0-0.1c0.1,0.1,0.1-0.1,0.2-0.1
		c0,0,0,0.1,0,0.1c0.2,0,0.3-0.2,0.4-0.2c0,0,0,0,0,0c0.1-0.2,0.3-0.1,0.4-0.2c0,0.1,0.1,0,0.1,0c0-0.2,0.3,0,0.4-0.2l0,0
		c0.4-0.1,0.7-0.1,0.9,0c0.1,0.1,0.1,0.3,0.2,0.5c0,0,0.1,0,0.1,0c0,0.1-0.1,0-0.1,0c0.1,0.1,0.1,0.3,0.1,0.4c0,0,0,0.1,0.1,0
		c-0.1,0.2,0.1,0.4,0,0.6C110.4,115.2,110.3,115.4,110.3,115.4z M107.9,123C107.9,123,107.9,123,107.9,123
		C107.9,123,107.9,123,107.9,123C107.9,123,107.9,123,107.9,123z M111.4,126.7C111.3,126.7,111.3,126.7,111.4,126.7
		C111.4,126.7,111.4,126.7,111.4,126.7C111.4,126.7,111.4,126.7,111.4,126.7z M116.2,120.7c0.2-0.5,0.4-1,0.5-1.6c0,0.2,0,0.3,0,0.5
		c-0.1,0.2-0.2,0.9-0.4,1.2c-0.1,0.1,0.1-0.2,0.1-0.3l-0.2,0.3C116.1,120.8,116.2,120.8,116.2,120.7z M116.1,122.5
		C116.1,122.4,116.1,122.4,116.1,122.5c0.2-0.1,0.3-0.1,0.4-0.1C116.3,122.4,116.2,122.4,116.1,122.5z M117.3,124.5
		C117.3,124.5,117.3,124.5,117.3,124.5c0,0,0.1,0,0.1-0.1C117.4,124.5,117.4,124.5,117.3,124.5z M120.1,117.4
		C120,117.4,120,117.4,120.1,117.4C120,117.3,120.1,117.3,120.1,117.4C120.1,117.4,120.1,117.4,120.1,117.4z M120.1,117.2
		c0,0-0.1-0.1,0-0.3l0,0C120.1,117,120.1,117.1,120.1,117.2z M120.3,115.6c0-0.1,0-0.1,0-0.2c0,0,0,0,0,0
		C120.3,115.5,120.3,115.5,120.3,115.6z M120.4,115.1c0,0,0-0.1,0-0.2c0,0,0,0,0,0C120.5,115,120.5,115,120.4,115.1z M120.7,114.3
		c0-0.1,0-0.1,0.1-0.2c0,0,0,0,0,0C120.7,114.2,120.7,114.3,120.7,114.3z M121.5,123.2C121.6,123.2,121.6,123.2,121.5,123.2
		C121.6,123.2,121.6,123.2,121.5,123.2C121.6,123.2,121.5,123.2,121.5,123.2z M123.3,110.3C123.3,110.3,123.3,110.3,123.3,110.3
		C123.3,110.2,123.3,110.2,123.3,110.3C123.3,110.3,123.3,110.3,123.3,110.3z M126.5,108.1C126.5,108.1,126.5,108.1,126.5,108.1
		C126.6,108.1,126.6,108.1,126.5,108.1C126.6,108.1,126.5,108.1,126.5,108.1z M127.4,116.2C127.4,116.2,127.4,116.2,127.4,116.2
		C127.4,116.2,127.5,116.2,127.4,116.2C127.5,116.2,127.4,116.2,127.4,116.2z M129.8,107.1C129.8,107.1,129.8,107.1,129.8,107.1
		c0.6-0.1,1.2,0,1.7-0.2l0.2-0.1c0.1,0,0.1,0.1,0.3,0.1c0.1-0.1,0.6,0,0.7-0.1c0.1,0,0,0,0,0.1c0.3,0,0.6-0.1,0.9,0l-0.1,0
		c0.4,0.1,0.9,0.3,1.3,0.5c-1-0.4-2.2-0.6-3.7-0.5c-0.7,0.1-1.4,0.2-2,0.3C129.2,107.2,129.5,107.2,129.8,107.1z M129.5,111.6
		C129.5,111.6,129.5,111.6,129.5,111.6C129.5,111.6,129.5,111.6,129.5,111.6L129.5,111.6z M129.3,111.7c0,0,0.1-0.1,0.1-0.1
		c0,0,0,0.1,0,0.1C129.4,111.7,129.4,111.8,129.3,111.7C129.4,111.8,129.4,111.8,129.3,111.7L129.3,111.7z M129.1,111.9
		C129.2,111.9,129.1,111.9,129.1,111.9C129.1,111.9,129.1,111.9,129.1,111.9C129.1,111.9,129.1,111.9,129.1,111.9z M128.8,112.2
		C128.8,112.3,128.8,112.3,128.8,112.2L128.8,112.2C128.8,112.3,128.8,112.3,128.8,112.2z M128.7,112.4
		C128.7,112.5,128.7,112.5,128.7,112.4C128.7,112.5,128.7,112.5,128.7,112.4C128.6,112.5,128.7,112.4,128.7,112.4z M128.5,112.6
		C128.5,112.6,128.5,112.6,128.5,112.6C128.5,112.6,128.5,112.6,128.5,112.6C128.5,112.6,128.5,112.6,128.5,112.6z M128.2,113.2
		C128.2,113.2,128.1,113.2,128.2,113.2C128.1,113.2,128.1,113.2,128.2,113.2C128.1,113.2,128.1,113.2,128.2,113.2z M127.9,113.8
		C127.9,113.8,127.9,113.8,127.9,113.8C127.9,113.8,127.9,113.8,127.9,113.8C127.9,113.8,127.9,113.8,127.9,113.8z M128,115.2
		c0.1-0.4,0.4-0.7,0.5-1.1c0,0-0.1,0-0.1-0.1l0,0l0-0.1c0,0,0.1,0,0.1,0c0.1-0.1,0.1-0.3,0.2-0.4c-0.1-0.1,0-0.1-0.1-0.1
		c0,0,0,0,0,0c0-0.1,0-0.1,0.2-0.1c0.3-0.3,0.4-0.6,0.7-0.9c0.2-0.3,0.5-0.5,0.8-0.7c0-0.2,0.1-0.1,0.1-0.3l0,0c0-0.1,0.1,0,0.1,0.1
		c0-0.1,0,0,0-0.1c0-0.1,0,0.1,0.1,0.1c0,0,0-0.1,0,0c0.1-0.1,0,0.1,0,0.1c0.1,0,0.2-0.1,0.2,0c0,0,0.1,0,0.1,0
		c-0.1,0.1,0.1,0,0,0.1c0,0,0,0-0.1,0c0,0.1,0.1,0.1,0,0.1c0,0,0,0,0,0c0.1,0,0,0.1,0.1,0.2c-0.1,0,0,0-0.1,0c0.2,0-0.1,0.1,0.1,0.2
		l0,0c0,0.2-0.1,0.4,0,0.6c0,0.1-0.2,0.2-0.2,0.3c0,0,0.1,0,0.1,0.1c0,0-0.1,0-0.1,0c0,0.1-0.1,0.1-0.1,0.2c0,0,0,0,0.1,0.1
		c-0.2,0,0,0.2-0.2,0.2c0.2,0.1,0,0.1,0.1,0.1c0,0-0.1,0-0.1,0c0,0.1,0,0.1-0.1,0.1c0,0,0.1,0.1,0,0.1c-0.1,0-0.1,0.1-0.1,0.1
		c0.1,0,0.1,0.1,0,0.1l-0.1-0.1c0,0.2-0.3,0.2-0.3,0.4l-0.1,0c-0.1,0.2-0.2,0.2-0.3,0.4c-0.1,0-0.1,0-0.2,0c0,0.1,0,0.1,0,0.2
		c0,0-0.1,0-0.1,0c-0.1,0-0.2,0-0.2,0.1l0-0.1c0,0.1-0.1,0.2-0.2,0.2c0,0.1,0,0.1,0,0.2c0,0-0.1-0.1-0.1,0l0-0.1
		c-0.1,0.1-0.2,0.1-0.4,0.2c-0.1-0.1-0.1,0.1-0.2,0c0,0.1-0.1,0-0.1,0.2l0-0.1c-0.1,0-0.2,0-0.2,0c-0.1,0,0,0.1-0.1,0.1l0-0.1
		c0,0,0,0.1,0,0.2c0,0,0,0-0.1,0c0,0,0,0,0,0c0,0,0-0.1,0.1-0.2c0,0-0.1,0.1-0.1,0.1c0-0.2,0.2-0.4,0.3-0.6
		C128,115.4,128,115.2,128,115.2z M127.8,114.1c0,0.1,0,0.1,0,0.2c0,0,0,0-0.1,0c0.1,0.1-0.2,0.2,0,0.3l0.1,0.1c0,0-0.1,0-0.1,0
		c0,0,0,0.1,0.1,0.1c0,0,0,0-0.1,0c0,0,0.1,0.1,0,0.2l0,0c-0.1,0.1-0.2,0.1-0.2,0.2C127.5,114.7,127.6,114.4,127.8,114.1z
		 M127.4,115.4c0,0,0,0.1,0,0.1c0,0,0,0-0.1,0C127.4,115.5,127.4,115.4,127.4,115.4z M127.2,116.3c0-0.1,0.1-0.3,0.1-0.4
		c0,0.1,0,0.2,0.1,0.3c0,0,0,0,0,0.1l0,0.1C127.3,116.2,127.3,116.3,127.2,116.3z M140.1,112.1c0-0.1,0-0.1,0-0.2c0,0,0,0,0,0
		C140.1,112,140.1,112.1,140.1,112.1z M141,121.2C141,121.2,141,121.2,141,121.2c0.1,0.2,0.2,0.3,0.4,0.5
		C141.2,121.5,141.1,121.4,141,121.2z M147,113.5L147,113.5C147,113.5,147,113.5,147,113.5C147,113.5,147,113.5,147,113.5z
		 M147,113.7C147,113.7,147,113.8,147,113.7c0,0.1,0,0.3,0,0.3c-0.1,0,0,0,0-0.1l-0.1,0c0,0,0,0,0,0
		C146.9,113.9,146.9,113.8,147,113.7z M146.8,114.4C146.8,114.4,146.8,114.4,146.8,114.4C146.8,114.4,146.8,114.5,146.8,114.4
		C146.8,114.4,146.8,114.4,146.8,114.4z M146.6,115.2C146.6,115.2,146.6,115.2,146.6,115.2C146.6,115.2,146.6,115.2,146.6,115.2
		C146.6,115.2,146.6,115.2,146.6,115.2z M146.6,115.3C146.7,115.3,146.7,115.3,146.6,115.3L146.6,115.3
		C146.6,115.3,146.6,115.3,146.6,115.3z M147,119.5C147,119.5,147,119.5,147,119.5c0.1,0.1,0,0.4,0.3,0.4l0.1,0c0,0,0,0.1,0,0.1
		c0.1,0,0.1,0.1,0.2,0.1c0,0,0,0-0.1,0.1c0,0.1,0.2,0,0.2,0.1l0,0c0.1,0.2,0.3,0.3,0.5,0.3c-0.7-0.1-1.1-0.6-1.4-1.3
		C146.9,119.3,146.9,119.4,147,119.5z M146.6,115.7C146.6,115.7,146.6,115.8,146.6,115.7C146.6,115.8,146.6,115.8,146.6,115.7
		C146.6,115.8,146.6,115.7,146.6,115.7z M146.6,115.9C146.6,115.9,146.6,115.9,146.6,115.9C146.6,115.9,146.6,115.9,146.6,115.9
		C146.6,115.9,146.6,115.9,146.6,115.9z M146.5,116.1C146.5,116.1,146.5,116.1,146.5,116.1C146.5,116.2,146.5,116.2,146.5,116.1
		C146.5,116.1,146.5,116.1,146.5,116.1z M146.7,118.6C146.7,118.6,146.7,118.6,146.7,118.6C146.7,118.6,146.7,118.6,146.7,118.6
		C146.7,118.6,146.7,118.6,146.7,118.6z M146.5,117.5C146.5,117.5,146.5,117.5,146.5,117.5C146.5,117.5,146.5,117.4,146.5,117.5
		C146.5,117.4,146.5,117.5,146.5,117.5z M150,124.3C149.9,124.3,150,124.2,150,124.3c-0.7,0.2-1.6,0.1-2.2,0.3l-0.2,0.1
		c-0.2,0-0.2-0.1-0.3-0.1c-0.2,0.1-0.7,0-0.8,0.1c-0.1,0,0,0,0-0.1c-0.4-0.1-0.8,0.1-1.2-0.1l0.1,0c-0.7-0.2-1.4-0.4-2.1-0.9
		c1.1,0.6,2.6,0.9,4.5,0.8c1.2-0.1,2.2-0.2,3.3-0.6C150.7,124.1,150.3,124.2,150,124.3z M148.7,120.5c0.1,0,0.1,0,0.2-0.1
		c0.1,0,0.1,0,0.1,0.1C148.8,120.5,148.7,120.5,148.7,120.5z M151.8,113c0,0.1,0.1,0.1,0.1,0.2c-0.1,0,0,0.2-0.1,0.3
		c0.1,0,0.2,0.1,0.1,0.2l-0.1,0c0,0.3-0.1,0.6,0,1l-0.1,0c0,0.3-0.1,0.6,0,1c-0.1,0.1-0.1,0.2-0.1,0.3c0.1,0.1,0,0.1,0.1,0.2
		c0,0-0.1,0-0.1,0c0,0,0,0.1-0.1,0.1c0,0-0.1,0-0.1,0l0-0.1c0,0,0,0.1-0.1,0.1c-0.1,0-0.2,0.1-0.3,0.1c0,0.1-0.1,0.2,0,0.2
		c0,0-0.1-0.1-0.1,0l0-0.1c-0.3,0.1-0.5,0.4-0.6,0.7c-0.2,0-0.2,0.3-0.3,0.4c0,0.1-0.1,0.3,0,0.4l-0.1,0c-0.1,0.1-0.1,0.3-0.2,0.5
		c0,0.1,0.1,0.1,0.1,0.2h-0.1c0,0.1,0.1,0.1,0.2,0.1c0,0,0,0,0,0c0,0,0,0.1,0,0.1c0-0.1-0.1-0.1-0.2-0.2c0,0.1,0.1,0.2,0,0.3
		c0,0.1,0,0.2,0.1,0.2c0,0,0,0.1-0.1,0c0,0.1,0,0.1,0.1,0.2c0,0,0,0,0-0.1c0.1,0,0.1,0.1,0.2,0c0,0,0,0.1,0,0.1c-0.1,0-0.1,0-0.1,0
		l0.2,0.1c0,0.1,0.1,0.2,0.1,0.3c-0.1,0.2-0.3,0.3-0.5,0.4c0.1-0.1,0.2-0.2,0.2-0.3c0.1-0.2,0-0.4,0-0.4c-0.2,0.5-0.8,0.6-1.1,0.5
		c-0.1,0-0.3,0.1-0.4,0c-0.5-0.1-0.6-0.7-0.8-1.4c0,0-0.1,0-0.1,0l0,0l-0.1,0c0,0,0.1,0,0.1,0c-0.1-0.3-0.1-0.5-0.1-0.8
		c-0.1,0,0-0.1-0.1-0.2c0,0,0,0,0,0c-0.1-0.2-0.1-0.2,0.1-0.4c0.1-0.8,0.1-1.5,0.2-2.3c0.1-0.8,0.2-1.5,0.6-2.2
		c-0.1-0.2,0.1-0.3,0-0.5l0,0c0-0.1,0.1-0.1,0.2-0.2c0,0,0-0.1-0.1-0.1c0-0.1,0.2,0,0.2-0.1c0,0,0,0,0,0c0-0.2,0,0.1,0.2-0.1
		c0.2-0.3,0.4-0.6,0.7-0.7c0,0-0.1,0,0-0.1c0.1,0.1,0.1-0.1,0.2-0.1c0,0,0,0.1,0,0.1c0.2,0,0.2-0.1,0.4-0.1c0,0,0,0,0,0
		c0.1-0.2,0.3,0,0.4-0.1c0,0.1,0.1,0,0.1,0.1c0.1-0.2,0.2,0,0.3-0.1l0,0c0.3,0,0.6,0.1,0.8,0.2c0.1,0.1,0.1,0.3,0.2,0.5
		c0,0,0.1,0,0.1,0c0,0-0.1,0-0.1,0c0.1,0.1,0.1,0.2,0.1,0.4c0,0,0,0,0.1,0c-0.1,0.2,0.1,0.4,0,0.5c0.2-0.1,0.1,0.1,0.1,0.2
		c0,0-0.1,0-0.1,0C151.8,112.7,151.8,112.8,151.8,113z M149.9,119.2C149.9,119.2,149.9,119.2,149.9,119.2
		C149.9,119.2,149.9,119.2,149.9,119.2L149.9,119.2z M154,122.6C154,122.6,154,122.6,154,122.6c0-0.1,0-0.1,0.1-0.1
		C154,122.6,154,122.6,154,122.6z M158.6,121.1C158.6,121.1,158.6,121.1,158.6,121.1C158.6,121.1,158.7,121.1,158.6,121.1
		C158.7,121.1,158.6,121.1,158.6,121.1z M159.2,118.6C159.2,118.6,159.2,118.6,159.2,118.6C159.2,118.6,159.3,118.6,159.2,118.6
		C159.2,118.6,159.2,118.6,159.2,118.6z M160,118.2c0.1-0.1,0.2-0.2,0.3-0.3c0.2-0.1,0.5-0.5,0.7-0.6c0.1,0-0.1,0.1-0.1,0.2l0.3-0.1
		C160.8,117.7,160.4,118,160,118.2z M195.2,130.7c0.1-0.3,0.3-0.2,0.4-0.3c0.4-0.2,0.7-0.6,1.1-0.3c0.1,0.1,0.1,0.3,0,0.3
		c-0.4,0.3-0.9,0.6-1.4,0.7C195.1,131,195.2,130.9,195.2,130.7z M178.2,124.2C178.2,124.2,178.2,124.2,178.2,124.2c0,0,0,0.1,0,0.1
		c-0.1,0.3-0.1,0.7-0.2,1c0,0,0,0,0,0C178,124.9,178.1,124.6,178.2,124.2z M166.7,135.5c-0.2,0-0.4-0.1-0.6-0.1
		C166.3,135.4,166.4,135.4,166.7,135.5z M163.9,127.5C163.9,127.5,163.9,127.5,163.9,127.5c-0.1,0.1-0.1,0.2-0.2,0.2
		C163.8,127.7,163.8,127.6,163.9,127.5z M165.2,135c0.2,0.1,0.3,0.1,0.5,0.2c-0.1,0-0.2-0.1-0.4-0.1
		C165.3,135.1,165.3,135.1,165.2,135z M168.1,130.5L168.1,130.5C168.1,130.5,168.1,130.5,168.1,130.5
		C168.1,130.5,168.1,130.5,168.1,130.5z M168.3,130.9C168.3,130.9,168.2,130.9,168.3,130.9C168.2,130.9,168.3,130.9,168.3,130.9
		C168.3,130.9,168.3,130.9,168.3,130.9z M168.2,130.7L168.2,130.7c-0.1,0-0.1,0-0.1-0.1C168.2,130.6,168.2,130.6,168.2,130.7
		C168.2,130.6,168.3,130.7,168.2,130.7C168.2,130.7,168.3,130.7,168.2,130.7z M168.5,131.2C168.5,131.2,168.5,131.2,168.5,131.2
		C168.5,131.2,168.5,131.2,168.5,131.2L168.5,131.2z M168.6,131.2C168.6,131.2,168.6,131.2,168.6,131.2
		C168.6,131.2,168.6,131.2,168.6,131.2L168.6,131.2z M169.3,135.6c-0.4,0.1-0.4,0-0.4,0c0.5,0,1-0.1,1.5-0.2
		C170,135.5,169.6,135.5,169.3,135.6z M168.8,131.3C168.8,131.3,168.8,131.3,168.8,131.3C168.8,131.3,168.8,131.3,168.8,131.3
		C168.8,131.3,168.8,131.3,168.8,131.3z M169,131.4C169,131.4,169,131.4,169,131.4C169,131.4,169,131.4,169,131.4
		C169,131.4,169,131.4,169,131.4z M169.6,131.3C169.6,131.3,169.6,131.3,169.6,131.3C169.6,131.3,169.6,131.3,169.6,131.3
		C169.6,131.3,169.6,131.3,169.6,131.3z M170.1,131C170.1,131,170.1,131,170.1,131C170.1,131,170.1,131,170.1,131
		C170.1,131,170.1,131,170.1,131z M169.7,130.4C169.8,130.5,169.8,130.5,169.7,130.4L169.7,130.4l0,0.1
		C169.8,130.6,169.7,130.5,169.7,130.4c-0.1,0.1-0.2,0.2-0.3,0.2c0,0.1,0,0,0,0.1c0,0,0,0,0,0c-0.1,0.1-0.1,0.1-0.1,0
		c-0.3,0-0.4,0-0.4-0.1c-0.1,0-0.2-0.3-0.2-0.6c0.6-0.2,1.2-0.3,1.8-0.4c0,0.1,0,0.2-0.1,0.2C170.3,130.2,169.9,130.2,169.7,130.4z
		 M170.4,130.8c0-0.1,0.1-0.1,0.1-0.2c0,0,0,0,0,0c0-0.1,0.2-0.1,0.1-0.2l-0.1-0.1c0,0,0.1,0,0.1,0.1c0,0,0-0.1,0-0.1c0,0,0,0,0.1,0
		c0,0,0-0.1,0-0.1l0,0c0.1,0,0.2-0.1,0.3-0.1C170.8,130.4,170.6,130.6,170.4,130.8z M171.1,129.9c0,0,0-0.1,0-0.1c0,0,0,0,0.1,0
		C171.1,129.8,171.1,129.8,171.1,129.9z M171.2,129.6L171.2,129.6C171.2,129.6,171.2,129.7,171.2,129.6
		C171.2,129.6,171.2,129.6,171.2,129.6z M175.9,131.9l0-0.2c-0.4,0.7-1,1.3-1.6,1.8c0.8-0.7,1.4-1.6,1.9-2.8c0,0,0.1,0,0.1,0
		C176.2,131.3,176.1,131.6,175.9,131.9z M178.8,124.7L178.8,124.7L178.8,124.7C178.8,124.7,178.8,124.7,178.8,124.7z M179.1,119.1
		c0-0.2,0.1-0.3,0.1-0.5c0,0,0,0,0,0C179.2,118.9,179.2,119,179.1,119.1z M181.7,118.7c-0.1,0.1-0.2,0.2-0.3,0.3
		C181.4,118.9,181.4,118.8,181.7,118.7L181.7,118.7z M181.9,121.8C181.9,121.8,181.9,121.8,181.9,121.8c0,0,0-0.1,0.1-0.1
		C182,121.7,181.9,121.7,181.9,121.8z M183.1,116.7c0.1-0.1,0.1-0.2,0.2-0.3c0,0,0,0,0,0C183.2,116.5,183.1,116.6,183.1,116.7z
		 M184.3,111.7c0-0.1,0-0.1,0-0.2c0,0,0,0,0,0C184.3,111.6,184.3,111.7,184.3,111.7z M184.3,111.2c0,0,0-0.1,0-0.2c0,0,0,0,0,0
		C184.3,111.1,184.3,111.2,184.3,111.2z M184.4,110.4c0-0.1,0-0.2,0-0.2c0,0,0,0,0,0C184.5,110.2,184.5,110.3,184.4,110.4z
		 M186.5,118.4c-0.1-0.1-0.4-0.4-0.5-0.5c0-0.1,0.1,0.1,0.1,0.1l-0.1-0.2c0,0,0,0,0.1,0c0.2,0.3,0.5,0.5,0.7,0.8
		C186.7,118.5,186.6,118.5,186.5,118.4z M186.5,105.9C186.5,105.9,186.5,105.8,186.5,105.9C186.5,105.8,186.5,105.8,186.5,105.9
		C186.5,105.8,186.5,105.9,186.5,105.9z M187.3,119C187.4,119,187.4,119,187.3,119C187.4,119,187.4,119,187.3,119
		C187.4,119,187.3,119,187.3,119z M189.5,103.2C189.5,103.2,189.5,103.1,189.5,103.2C189.6,103.1,189.6,103.1,189.5,103.2
		C189.5,103.2,189.5,103.2,189.5,103.2z"/>
	<path class="st1" d="M199.6,114.7C199.6,114.7,199.6,114.7,199.6,114.7c0,0,0.1,0,0.1-0.1L199.6,114.7z"/>
	<path class="st1" d="M200.6,108.6c0-0.1-0.1,0-0.2,0C200.3,108.7,200.5,108.6,200.6,108.6z"/>
</g>
</svg>
