<svg xmlns="http://www.w3.org/2000/svg" viewBox="2495 29 205 62.711">
  <g id="logo_black" transform="translate(2495.013 29.03)">
    <g id="Layer_1" data-name="Layer 1" transform="translate(-0.013 -0.03)">
      <path id="Path_101" data-name="Path 101" d="M193.452,51.18c8.528,4.5,11.253,5.027,14.507,5.08a17.461,17.461,0,0,0,9.268-2.434,6.57,6.57,0,0,0,2.5-2.5,2.31,2.31,0,0,0,.088-2.434c-.794-1.058-1.579.362-1.922-.2s.511-1.049.785-1.111c1.764-.441,2.646,1.764,2.081,3.457a14.365,14.365,0,0,1-4.692,6.341,16.914,16.914,0,0,1-11.305,3.792c-3.863-.053-7.425-1.323-10.944-2.769-2.31-.935-4.753-1.5-7.055-2.293-2.116-.714-4.065-.168-6.085.476a6.014,6.014,0,0,0-1.72,1.138,1.146,1.146,0,0,0-.45,1.129.82.82,0,0,0,.882.511c.273,0,.564-.229.882-.079s.661.247.661.705-.388.45-.653.591c-2.213,1.173-3.527-1.094-3.783-3.289a7.69,7.69,0,0,1,4.127-7.663c2.231-1.12,4.33-.97,6.667-.723a11.349,11.349,0,0,1,4.639,1.482C192.332,50.651,192.808,50.845,193.452,51.18Zm19.542,6.984a5.291,5.291,0,0,0,1.684-.767c.1-.062.141-.335,0-.4-.494-.256-.882.141-1.314.37-.176.088-.4,0-.476.344S212.791,58.085,212.994,58.165Zm-34.886-4.78c.45.326.723-.053,1.023-.159-.079-.194-.141-.538-.256-.556C178.443,52.591,178.416,53.147,178.108,53.385Z" transform="translate(-20.834 -5.588)"/>
      <path id="Path_102" data-name="Path 102" d="M.88,65.035a9.11,9.11,0,0,1,2.249.353,12.716,12.716,0,0,0,5.432.441,11.923,11.923,0,0,1,2.4.062,21.278,21.278,0,0,0,3.087-.071,17.074,17.074,0,0,1,2.5-.088c.441,0,.882.071,1,.229.256.4.82.309,1.543.212a16.755,16.755,0,0,1,4.242-.15,14.382,14.382,0,0,0,2.31,0c.944,0,1.87-.062,2.8,0a28.986,28.986,0,0,0,3.113-.291,30.689,30.689,0,0,1,3.589-.291A78.717,78.717,0,0,0,44.894,65c2.487-.168,5.027-.344,7.5-.653,3.042-.37,6.058-.608,9.092-.776,1.155-.071,2.3-.247,3.448-.414a12.24,12.24,0,0,1,4.912.168c.317.088.688.168.688.467-1.2.247-2.434.529-3.686.75-6.729,1.2-13.484,2.293-20.371,3.025a232.93,232.93,0,0,1-25.318,1.49c-5.212,0-10.459,0-15.459-.423A26.287,26.287,0,0,1,1.656,68,2.443,2.443,0,0,1,.14,67.116C.1,67.055-.054,66.975,0,66.931.748,66.34,0,65.705.88,65.035Z" transform="translate(0.013 -7.414)"/>
      <path id="Path_103" data-name="Path 103" d="M163.254,64.1a5.776,5.776,0,0,1-2.161-.679c-.071,0-.141-.115-.22-.115-1.508,0-1.843-.688-2.8-1a21.835,21.835,0,0,0-5.811-.944c-2.646-.132-5.344-.247-7.884-.591a8.492,8.492,0,0,0-1.852-.123c-3,.2-5.961.238-8.916.238-2.337,0-4.692.317-7,.3-1.7,0-3.422,0-5.124-.062a22.779,22.779,0,0,0-4.656.168,31.633,31.633,0,0,1-5.873.291,35.883,35.883,0,0,0-5.238.441,4.575,4.575,0,0,1-3.527-.564c-.379-.309-.661-.635-1.085-1.049,2.011-.229,3.863-.467,5.714-.644,3.686-.344,7.4-.608,11.05-.794,3.386-.168,6.588-.882,9.895-1.1a56.531,56.531,0,0,1,9.03-.265,3.712,3.712,0,0,0,.882-.1,10.133,10.133,0,0,1,4.039.079,9.7,9.7,0,0,0,2.646.088c1.437,0,2.751.406,4.321,0a2.487,2.487,0,0,1,.838,0c3.2.529,6.7.644,9.921,1.182a4.3,4.3,0,0,1,2.143.82c.45.388.979.741,1.455,1.111.247.185.573.379.52.617C163.351,62.332,163.959,63.213,163.254,64.1Zm-9.789-3.43s.115-.115.088-.15a.388.388,0,0,0-.379-.071.121.121,0,0,0-.088.15.4.4,0,0,0,.379.106Z" transform="translate(-11.933 -6.748)"/>
      <path id="Path_104" data-name="Path 104" d="M13.3,12.379V12.15A2.1,2.1,0,0,0,13.3,12.379Z" transform="translate(-1.56 -1.409)"/>
      <path id="Path_105" data-name="Path 105" d="M4.94,53.423a.132.132,0,0,0,0,.062A1.01,1.01,0,0,1,5,53.07Z" transform="translate(-0.572 -6.243)"/>
      <path id="Path_106" data-name="Path 106" d="M56.233,42.988V42.9C56.119,42.988,56.233,42.838,56.233,42.988Z" transform="translate(-6.626 -5.042)"/>
      <path id="Path_107" data-name="Path 107" d="M59,49.32Z" transform="translate(-6.959 -5.8)"/>
      <path id="Path_108" data-name="Path 108" d="M56.05,43.59Z" transform="translate(-6.61 -5.123)"/>
      <path id="Path_109" data-name="Path 109" d="M56.2,43.129a.67.67,0,0,0-.185,0C56.081,43.217,56.125,43.147,56.2,43.129Z" transform="translate(-6.606 -5.068)"/>
      <path id="Path_110" data-name="Path 110" d="M64.981,54.12h0l-.141.1Z" transform="translate(-7.649 -6.367)"/>
      <path id="Path_111" data-name="Path 111" d="M102.78,46.994c0,.053,0,.062.079.053C102.824,46.836,102.868,47.056,102.78,46.994Z" transform="translate(-12.131 -5.52)"/>
      <path id="Path_112" data-name="Path 112" d="M106.06,36.272h0V36.21Z" transform="translate(-12.518 -4.251)"/>
      <path id="Path_113" data-name="Path 113" d="M102.5,46.21Z" transform="translate(-12.098 -5.433)"/>
      <path id="Path_114" data-name="Path 114" d="M102.68,46.773c.053,0,.088-.088.132-.123C102.706,46.623,102.715,46.72,102.68,46.773Z" transform="translate(-12.119 -5.484)"/>
      <path id="Path_115" data-name="Path 115" d="M89.44,45v.088C89.555,44.912,89.449,45.079,89.44,45Z" transform="translate(-10.555 -5.29)"/>
      <path id="Path_116" data-name="Path 116" d="M89.629,44.319Z" transform="translate(-10.576 -5.209)"/>
      <path id="Path_117" data-name="Path 117" d="M91.16,34.15Z" transform="translate(-10.758 -4.008)"/>
      <path id="Path_118" data-name="Path 118" d="M89.46,44.789h.185C89.707,44.789,89.531,44.771,89.46,44.789Z" transform="translate(-10.557 -5.264)"/>
      <path id="Path_119" data-name="Path 119" d="M85,69.291c.2-.776-.071.22,0-.441a.732.732,0,0,0,0,.441Z" transform="translate(-10.026 -8.107)"/>
      <path id="Path_120" data-name="Path 120" d="M91.152,27.83h0Z" transform="translate(-10.75 -3.261)"/>
      <path id="Path_121" data-name="Path 121" d="M104.41,20.76v.185a.626.626,0,0,0,0-.185Z" transform="translate(-12.324 -2.426)"/>
      <path id="Path_122" data-name="Path 122" d="M85.388,67.7c0-.388-.132.071-.22.194S85.317,67.735,85.388,67.7Z" transform="translate(-10.048 -7.953)"/>
      <path id="Path_123" data-name="Path 123" d="M132.83,34.8Z" transform="translate(-15.681 -4.085)"/>
      <path id="Path_124" data-name="Path 124" d="M128.56,37.62V37.8C128.622,37.717,128.578,37.682,128.56,37.62Z" transform="translate(-15.177 -4.418)"/>
      <path id="Path_125" data-name="Path 125" d="M142.057,35.64c-.256.423.079-.115-.071.265A.282.282,0,0,0,142.057,35.64Z" transform="translate(-16.759 -4.184)"/>
      <path id="Path_126" data-name="Path 126" d="M140.774,37.77a.82.82,0,0,1-.044.088S140.783,37.8,140.774,37.77Z" transform="translate(-16.614 -4.436)"/>
      <path id="Path_127" data-name="Path 127" d="M139.041,50.52h0l-.141.071A.414.414,0,0,0,139.041,50.52Z" transform="translate(-16.398 -5.942)"/>
      <path id="Path_128" data-name="Path 128" d="M141.728,36.447c0-.053-.159,0-.229,0C141.455,36.72,141.631,36.491,141.728,36.447Z" transform="translate(-16.704 -4.277)"/>
      <path id="Path_129" data-name="Path 129" d="M158.3,43.169c0,.053,0,.062.071.053C158.353,43.063,158.371,43.266,158.3,43.169Z" transform="translate(-18.69 -5.072)"/>
      <path id="Path_130" data-name="Path 130" d="M161,33.84Z" transform="translate(-19.009 -3.971)"/>
      <path id="Path_131" data-name="Path 131" d="M158.21,42.985c.053,0,.1-.079.15-.115C158.254,42.861,158.254,42.985,158.21,42.985Z" transform="translate(-18.679 -5.038)"/>
      <path id="Path_132" data-name="Path 132" d="M145.085,35.61a.4.4,0,0,0,0,.335C145.2,35.337,145.076,36.13,145.085,35.61Z" transform="translate(-17.124 -4.18)"/>
      <path id="Path_133" data-name="Path 133" d="M166.84,17.684V17.64l-.22.132Z" transform="translate(-19.673 -2.057)"/>
      <path id="Path_134" data-name="Path 134" d="M145.312,34.694c-.062-.3-.123.062-.194.168S145.25,34.721,145.312,34.694Z" transform="translate(-17.131 -4.058)"/>
      <path id="Path_135" data-name="Path 135" d="M186.177,56.11Z" transform="translate(-21.981 -6.602)"/>
      <path id="Path_136" data-name="Path 136" d="M185.6,54.24Z" transform="translate(-21.915 -6.381)"/>
      <path id="Path_137" data-name="Path 137" d="M186.3,55.819Z" transform="translate(-21.997 -6.567)"/>
      <path id="Path_138" data-name="Path 138" d="M186.18,56a1.041,1.041,0,0,0,.176,0Z" transform="translate(-21.984 -6.589)"/>
      <path id="Path_139" data-name="Path 139" d="M174.705,58.246c.176-.882-.053.256,0-.476A.829.829,0,0,0,174.705,58.246Z" transform="translate(-20.624 -6.798)"/>
      <path id="Path_140" data-name="Path 140" d="M188.69,34.811V34.67A1.094,1.094,0,0,0,188.69,34.811Z" transform="translate(-22.28 -4.069)"/>
      <path id="Path_141" data-name="Path 141" d="M179.171,21.9s-.062,0-.071.044a2.586,2.586,0,0,0,.4-.1Z" transform="translate(-21.147 -2.555)"/>
      <path id="Path_142" data-name="Path 142" d="M175.148,56.538c0-.414-.141.062-.238.2C174.989,56.8,175.078,56.564,175.148,56.538Z" transform="translate(-20.652 -6.633)"/>
      <path id="Path_143" data-name="Path 143" d="M226.169,29.34c-.379.379.106-.115-.159.256a.335.335,0,0,0,.159-.256Z" transform="translate(-26.689 -3.44)"/>
      <path id="Path_144" data-name="Path 144" d="M226.806,42.13h0l-.106.115A.415.415,0,0,0,226.806,42.13Z" transform="translate(-26.771 -4.951)"/>
      <path id="Path_145" data-name="Path 145" d="M204.864,28.763a5.565,5.565,0,0,0-1.138-.661,1.923,1.923,0,0,0-.97-.141,1,1,0,0,0-.75.591l-.238.538c-.062.132-.115.265-.168.4s.044.071,0,.22-.053,0-.132.044a6.234,6.234,0,0,1-.979,1.526c0,.079-.132.22,0,.2a11.711,11.711,0,0,1-1.764,1.631c.309,0-.282.326-.476.494s-.168,0-.132,0a4.691,4.691,0,0,1-1.332.653,2.32,2.32,0,0,1-.661.335c-.247-.053-.723.2-1.085.229.115.088-.326.256-.688.256l.088-.168a5.476,5.476,0,0,1-3.713-.741v-.123a4.771,4.771,0,0,1-1.579-3.369c0-.388.088-.944.123-1.279a10.073,10.073,0,0,0-.053-1.014.626.626,0,0,1,.15-.335,11.546,11.546,0,0,0,.485-1.614h.079a3.307,3.307,0,0,1,.706-1.552c0-.176.335-.617.106-.476.123-.176.185,0,.265-.247v.229a3.281,3.281,0,0,1,1.764-1.235.379.379,0,0,1,.485.37,7.487,7.487,0,0,1-.406,1.649c0,.362-.37.882-.432,1.376v.062h-.071a1.764,1.764,0,0,0,.811.794,4.6,4.6,0,0,0,1.085.353,2.081,2.081,0,0,0,.776-.079v.079a.935.935,0,0,0,.564-.247h.617a2.477,2.477,0,0,0-.67.291c.467,0,.882-.256,1.182-.185s.67-.15.67-.265c-.071.053.247,0,.062.088a1.587,1.587,0,0,0,.635-.273s-.15.053-.238.088c.1-.106.291-.185.273-.265l.317-.132c.044.053-.22.229,0,.185l.309-.265.159-.15a2.849,2.849,0,0,0,.961-.882,7.135,7.135,0,0,0,.67-2.5,7.928,7.928,0,0,1-.062,1.243,7.354,7.354,0,0,0-.159,1.129,1.332,1.332,0,0,0,0,.353,8.352,8.352,0,0,0,.688-3.81,5.009,5.009,0,0,0-1.764-3.572,8.087,8.087,0,0,0-2.76-1.138,16.65,16.65,0,0,0-5.124-.062,12.778,12.778,0,0,0-4.894,1.676c.185-.053,0,.1-.115.194h-.053l-.185.212c-.212.15-.176,0,0-.123a15.213,15.213,0,0,0-3.051,2.54c0,.15-.45.547-.388.661s0,0,0-.062a8.908,8.908,0,0,1-1.155,1.464,12.452,12.452,0,0,0-1.825,8.422l-.282.529a27.734,27.734,0,0,1-1.764,2.848,12.346,12.346,0,0,1-2.134,2.4c-.176.141-.467.379-.564.432h0c1.1-5.485,2.187-10.882,3.325-16.508a6.1,6.1,0,0,1,.062-.767c.053-.317.1-.644.159-.979s-.467-.829-.732-1.005a3.263,3.263,0,0,0-.882-.335h.088a21.639,21.639,0,0,0-2.452-.547c0,.053-.485,0-.309.106-.432.079-.776-.176-1.411-.071,0,0,0,.062-.115,0-.8.159-.723.15-.714.1s0-.176-1.1.115a3,3,0,0,0-.556.282,1.076,1.076,0,0,0-.282.194l-.353.317a4.347,4.347,0,0,0-.115.459l-.053.256-.106.5-.45,2.046c-.291,1.34-.582,2.646-.882,3.933,0-.159.132-.212.071.053-.229.2-.15.882-.326,1.305a1.227,1.227,0,0,1,0-.379,30.263,30.263,0,0,1-.882,3.184.5.5,0,0,1,0-.132,21.005,21.005,0,0,1-1.2,2.822c0-.176-.265.388-.414.556a6.464,6.464,0,0,1-1.764,2.213v-.044a1.914,1.914,0,0,1-.7.353.15.15,0,0,1-.212-.106,5.687,5.687,0,0,1,.062-1.94c.265-1.508.538-3.034.8-4.542.309-1.684.882-3.527,1.146-5.415,0-.344-.062-.088,0-.37.1-.459.062,0,.123-.15a13.29,13.29,0,0,1,.282-1.552c.062-.273.123-.556.194-.882v-.212a3.3,3.3,0,0,1,.079-.406c.1-.265-.115-.467-.247-.688a1.385,1.385,0,0,0-.353-.317c-.106-.071-.168-.1-.123,0-1.358-1.032-3.254-.882-4.639-.882.494.159-.811.123-1.288.282h-.265a6.173,6.173,0,0,0-1.2.406,1.834,1.834,0,0,0-.776.688l-.247.944a11.464,11.464,0,0,1-.2,1.349,15.477,15.477,0,0,0-.494,1.967c.141-.141.044.688-.132,1.305l-.115-.229c-.353,2.028-1.164,4.894-1.5,7.284l-.132.159c-.053.309-.115.626-.176.944a6.781,6.781,0,0,1-2.769,2.213c-.52.185-.467.115-.388-.1a17.177,17.177,0,0,0,1.049-3.263,20.744,20.744,0,0,0,.079-2.5l.053.062c-.062-.714.071-.882.071-1.764-.071,0-.044-.344-.141-.2-.1-.3.071-.573,0-1.023,0,0-.071,0-.044-.079-.388-1.111.15.212-.159-1.279a6.931,6.931,0,0,0-4.409-4.409c.132,0,.159.123,0,.071-.15-.2-.679-.15-1.023-.247a.529.529,0,0,1,.3,0,8.819,8.819,0,0,0-2.593-.062,1.058,1.058,0,0,1,.212-.053,11.993,11.993,0,0,0-2.443.67c.088-.115-.362.1-.547.132-.432.414-1.517.7-1.958,1.2h0a2.726,2.726,0,0,0-.344.291c-.1.123,0-.088,0-.132l.053-.256v-.159l.168-.529c.115-.344.247-.688.388-1.014a10.088,10.088,0,0,1,2.355-2.884c.168-.168,0-.088.132-.22s0,.053.15,0a7.055,7.055,0,0,1,1.949-1.138c.071-.071.273-.176.185-.185.882-.238,2-.838,2.963-1.138-.388,0,.494-.309.794-.52.168-.079.194-.044.168,0a9.171,9.171,0,0,0,1.764-1.235c.291-.335.273-.5.6-.882a3.183,3.183,0,0,0,.653-1.517c-.123.106-.079-.547-.071-1.058l.159.159a6.808,6.808,0,0,0-.776-2.725,4.762,4.762,0,0,0-.988-1.42c-.335-.353-1.358-.882-1.764-.22h-.053l-.15.053a24.931,24.931,0,0,1-3.915,3.43c-.414.212-1.058.564-1.455.794a7.523,7.523,0,0,0-1.014.8,1.067,1.067,0,0,1-.459.141,8.016,8.016,0,0,0-1.887,1.111l-.062-.053a16.843,16.843,0,0,1-1.843,1.349c-.115.176-.653.644-.353.511-.2.194-.22,0-.388.256l.141-.256a14.833,14.833,0,0,0-3.042,3.3,11.261,11.261,0,0,0-1.349,1.94,7.522,7.522,0,0,0-.7,1.658h-.079c-.3.626-.635,1.49-.961,2.337a3.7,3.7,0,0,0-.141.944h-.079a1.526,1.526,0,0,0,.044.785c-.132.326-.088.379-.22.7a2.8,2.8,0,0,0,0-.882,13.917,13.917,0,0,1-.273,1.429c-.123.467-.159.838-.053.882,0-.106-.106.291-.106,0a3.527,3.527,0,0,0-.062.882,1.089,1.089,0,0,1,.044-.309c0,.159,0,.423.088.45s0,.282-.044.423-.079-.4-.15-.15l.088.882c-.044.5-.106,1-.123,1.508a22.005,22.005,0,0,0,0,2.531.141.141,0,0,0,0,.062,4.723,4.723,0,0,0-.123-.882,3.889,3.889,0,0,0-.362-1.764c0,1.12,0,2.187.088,3.254l-.265.317c-.15.247-.115.379-.362.626-.229.088-.485.556-.767.758.141,0-.106.4-.406.582v-.185a12.751,12.751,0,0,1-3.43,2.125l-.115-.053a12.734,12.734,0,0,1-3.827.767l-1.235-.15a8,8,0,0,0-.961,0,.591.591,0,0,1-.309-.185c-.556-.2-.944-.556-1.358-.723v-.071a2.161,2.161,0,0,1-.582-.476,1.446,1.446,0,0,1-.344-.644c-.106-.053-.247-.459-.3-.317-.079-.176.132,0,0-.238l.168.2-.044-.256a2.475,2.475,0,0,1,.256,0H115a16.94,16.94,0,0,0,1.764-.123,8.077,8.077,0,0,0,1.817-.176c.379-.132,1.085-.212,1.323-.45l.044.062a14.622,14.622,0,0,0,1.843-.67c.379-.168.335-.256.591-.459l.053.053a.882.882,0,0,0,.353-.476.618.618,0,0,0,.088-.071,3.739,3.739,0,0,1,.406-.247,2.143,2.143,0,0,0-.406.573c.379-.238.626-.635.882-.732s.494-.45.432-.547c0,.079.212-.132.1.053a2.566,2.566,0,0,0,.353-.459l-.106.1c0-.132.185-.344.079-.37.062-.088.141-.168.2-.256s-.079.317.079.185a5.575,5.575,0,0,0,.229-.644,6.8,6.8,0,0,0,.547-1.032,6.5,6.5,0,0,0,.6-2.981v1.764a6.657,6.657,0,0,0-.123,1.085,1.207,1.207,0,0,0,.053.353,7.055,7.055,0,0,0-.882-7.24,9.6,9.6,0,0,0-2.4-1.6,11.835,11.835,0,0,0-4.956-.741,13.228,13.228,0,0,0-4.868,1.076c.185,0,0,.1-.132.176h0l-.2.185c-.229.115-.176,0,0-.132a15.477,15.477,0,0,0-3.272,2.019c0,.15-.5.459-.459.582s0,0,0-.062a7.769,7.769,0,0,1-1.305,1.235,13.378,13.378,0,0,0-3.157,9.78s0,.071,0,.115a1.608,1.608,0,0,1-.22.326,6.852,6.852,0,0,1-2.258,1.764,6.473,6.473,0,0,1-.882.335h0c-.062,0,0,0,0-.053a20.336,20.336,0,0,0,1.279-4.136c.459-2.84.582-5.988-1.049-8.766-.282-.4-.723-.785-1.12-1.226a4.348,4.348,0,0,0-1.534-.882h.1a10.583,10.583,0,0,0-2.31-.714c0,.062-.467,0-.3.123-.414.1-.741-.22-1.349-.088,0,0,0,.062-.106.044-1.5.441.265-.185-1.667.229a9.947,9.947,0,0,0-1.561.705,5.06,5.06,0,0,0-.432.326c-.071.088,0,0,0-.062v-.168l.071-.379c.159-.714.317-1.411.476-2.108,0,.15-.132.2-.079-.044.229-.194.132-.829.291-1.243a1.279,1.279,0,0,1,0,.362c.309-1.094.4-2.046.705-3.078a.194.194,0,0,1,0,.079c.132-1.023.547-2.178.6-2.875,0,.176.15-.432.229-.635a3.448,3.448,0,0,1,.132-.979c.1-.388.212-.811.309-1.208a1.058,1.058,0,0,0-.494-1.146h.062a2.593,2.593,0,0,0-.653-.388,5.362,5.362,0,0,0-.564-.194,10.186,10.186,0,0,0-1.12-.247,13.863,13.863,0,0,0-2.266-.168,9.021,9.021,0,0,0-2.337.291,2.751,2.751,0,0,0-1.261.714,1.579,1.579,0,0,0-.388.776l-.1.538c-.326,1.587-.882,3.333-1.191,5.088,0,.326.062.079,0,.344-.106.441-.071,0-.132.15-.106.882-.45,1.984-.688,3.06v.344a15.5,15.5,0,0,0-.485,2c-.062.3-.115.591-.176.882v.132a.185.185,0,0,1-.123-.044c-.035-.044,0,.132-.079.106a8.244,8.244,0,0,0-.882-.159c-.212-.018-.273-.071-.212-.1a16.5,16.5,0,0,0-2.646,0c-.547.053-.661.238-1.305.335-.441-.079-1.3.406-1.914.564.176,0-.494.476-1.076.723l.1-.229a17.576,17.576,0,0,0-2.813,2.1A11.737,11.737,0,0,0,68.9,31.056l-.168.106a15.98,15.98,0,0,0-2.081,6.649,11.1,11.1,0,0,0-.22,2.222v.379l-.071.071c-.265.229-.185.309-.353.529h-.062a.882.882,0,0,0-.176.432l-.132.1h0l-.168.106-.106.053a1.173,1.173,0,0,0,.317-.52c-.3.2-.494.564-.758.582s-.485.256-.459.362c.044-.053-.2,0-.071-.079a1.763,1.763,0,0,0-.494.273s.106.009.106-.053c-.071.1-.229.168-.22.247l-.291.071c0-.071.2-.168.053-.168a3.721,3.721,0,0,1-.441.256,3.527,3.527,0,0,1-.52.062.147.147,0,0,1,.071-.15c.071-.044.088.071.106.115.159-.088,0-.106-.1-.15a28.008,28.008,0,0,0,2-5.512c.053-.75.088-1.72.079-2.425a10.794,10.794,0,0,0-1.014-4.33,7.372,7.372,0,0,0-3.254-3.3c.123.106-.062.079-.212,0v-.044h-.247c-.212-.1-.079-.141.1-.071a10.177,10.177,0,0,0-3.333-.882c-.088.106-.6-.071-.653.071-.053,0,0,0,0-.053a4.127,4.127,0,0,1-1.587-.1,14.639,14.639,0,0,0-8.519,3.025,14.233,14.233,0,0,0-4.868,7.752,3.369,3.369,0,0,1-.053.714,14.339,14.339,0,0,1-4.436,4.771c-1.208.882-3.448,1.5-4.348.653a7.125,7.125,0,0,1-2.2-3.783,27,27,0,0,1-.882-4.718l-.106-1.208-.044-.608v-.15h0l.661-.882.776-.935c1.067-1.217,2.213-2.4,3.4-3.527-.282.22-.062-.088.176-.326h.079l.326-.414c.362-.344.273-.123,0,.168.979-.935,1.861-1.667,2.866-2.646a2.566,2.566,0,0,0,.406-2.469,6.887,6.887,0,0,0-.961-1.922c-.176-.115-.935-1.138-1.1-1.111-.079-.106,0,0,.079,0a9.339,9.339,0,0,0-1.579-1.226,5.106,5.106,0,0,0-1.861-.785,2.646,2.646,0,0,0-1.482.238,9.507,9.507,0,0,0-1.041.626,21.8,21.8,0,0,0-1.808,1.376,33.642,33.642,0,0,0-3.236,3.1c-1.138,1.235-2.187,2.54-3.192,3.863,1.446-6.579,2.981-13.043,4.789-19.718.1-.882.432-1.993.679-3.122a1.111,1.111,0,0,0-.291-1.014l.123.071A3.333,3.333,0,0,0,25.59.825,8.219,8.219,0,0,0,24.074.349c0,.053-.556-.071-.362.071-.5,0-.882-.273-1.6-.265,0,0,0,.071-.141,0-1.852.088.362-.1-1.993-.185A18.387,18.387,0,0,0,17.5.252a9.021,9.021,0,0,0-1.252.326,3.06,3.06,0,0,0-1.279.741,3.527,3.527,0,0,0-.529,1.34l-.317,1.155c-.212.758-.414,1.517-.626,2.258,0-.185.159-.247.079.053-.256.247-.212,1.023-.414,1.534a1.931,1.931,0,0,1,.044-.45c-.423,1.349-.591,2.522-.979,3.8v-.1c-.212,1.261-.705,2.69-.811,3.527,0-.212-.176.538-.273.794,0,.944-.617,2.381-.723,3.527v-.044C9.7,22.061,8.879,25.7,8.262,29.221,7.883,31.2,7.256,33.384,6.93,35.571c-.053.4.053.1,0,.423-.106.538-.062,0-.123.185-.123,1.085-.494,2.478-.741,3.818,0,.168-.053.538,0,.423-.414,1.464-.6,3.527-.961,5.044.273-.494-.062.926-.106,1.464-.071.3-.115.326-.132.229-.176,1.155-.273,1.764-.547,3.139a1.878,1.878,0,0,0,1.058,1.764,5.027,5.027,0,0,0,2.487.679c-.185-.115.811-.132,1.579-.123l-.22.291a26.454,26.454,0,0,0,3.527-.423,13.854,13.854,0,0,0,1.87-.556,6.649,6.649,0,0,0,.961-.441,1.579,1.579,0,0,0,.8-1.041c.062-.564.1-.988.132-1.464l.123-.194c.141-1.446.335-2.875.529-4.286a16.438,16.438,0,0,1,.317-2.019,9.277,9.277,0,0,1,.714-1.87c.106-.15.229-.317.353-.5a4.36,4.36,0,0,1,.37-.476l.414-.459c.053-.1.071-.062.079,0l.053.115.079.212.273.6a3.122,3.122,0,0,1,.1.758A15.071,15.071,0,0,0,21,44.257l-.053.062c.45.944,1.173,2.249,1.764,3.254.247.238,1.014,1.111.732.653.335.326.115.309.5.591l-.388-.247a7.849,7.849,0,0,0,6.755,2.469,10.715,10.715,0,0,0,3.818-.776,9.886,9.886,0,0,0,2.54-1.437l.079.044a19.621,19.621,0,0,0,3.184-2.549,5.794,5.794,0,0,0,.944-1.2h.088c.1-.132.176-.238.238-.335.062.185.115.379.185.564,0-.071,0-.141.079,0-.1.194.229.414.282.653-.044,0-.106-.088-.15-.141a7.328,7.328,0,0,0,1,1.49.414.414,0,0,1-.115-.1c.459.388.944,1.005,1.349,1.155-.115,0,.194.185.282.282.45.053.97.591,1.517.635h0a11.253,11.253,0,0,0,4.692.538,11.164,11.164,0,0,0,2.813-.265c.168-.062,0-.079.159-.123s0,.062.106.071c.45-.194,1.085-.256,1.649-.459.062-.053.212-.115.141-.141a11.208,11.208,0,0,0,2.081-.882c-.291-.044.309-.273.485-.441s.15,0,.132,0c.423-.282.644-.441,1.173-.767.212-.185.2-.317.485-.5s.3-.326.494-.238c-.079-.115.335-.176.653-.132l-.1.15a10.141,10.141,0,0,0,3.748-.582l.115.062A9.877,9.877,0,0,0,67.1,44.142a3.457,3.457,0,0,0,.485.952l-.053.141A7.8,7.8,0,0,0,69.763,47.4c.265.106,1.182.4.8.168.362.088.194.2.591.22h-.379a6.517,6.517,0,0,0,3.042.132,9.56,9.56,0,0,0,2.813-.882,4.506,4.506,0,0,0,1.579-.882c.079-.1.044,0,0,.088l-.062.238a4.754,4.754,0,0,1-.115.767,3.853,3.853,0,0,0-.1,1.023h-.079c-.185.882-.432,2.037-.67,3.184a6.535,6.535,0,0,0-.106,1.217H77a2.522,2.522,0,0,0,0,.952,2.417,2.417,0,0,0,0,.247c-.071.256-.062.379-.176.723a4.612,4.612,0,0,0,0-1.12,14.284,14.284,0,0,1-.317,1.861,2.437,2.437,0,0,0-.115,1.1c0-.132-.132.379-.115,0a6.34,6.34,0,0,0-.141,1.1,1.151,1.151,0,0,1,.071-.4v.582a3.471,3.471,0,0,1-.115.573c-.071,0,0-.529-.115-.229v1l-.4,2.072c-.132.882,1.922,1.12,3.968.961-.767.071-1.508.115-2.187.141a3.686,3.686,0,0,1-1.9-.37,1.049,1.049,0,0,1-.414-.767,1.032,1.032,0,0,0,.406.97,1.984,1.984,0,0,0,.661.344,5.582,5.582,0,0,0,1.2.22,13.782,13.782,0,0,0,2.258,0,15.636,15.636,0,0,0,2.2-.3A7.936,7.936,0,0,0,82.885,62a2.725,2.725,0,0,0,.6-.326A1.314,1.314,0,0,0,84,60.942c.229-1.014.467-2.037.705-3.1.229-1.349.52-3.113.8-4.339s.5-2.646.758-3.907l.406-1.984c.1-.467.071-.265.088-.344h.132a13.7,13.7,0,0,0,8.281-1.4c-.282.1,0-.1.229-.238h.079l.344-.291c.37-.22.265-.044,0,.15a10.961,10.961,0,0,0,1.4-.882c.212-.168.432-.326.635-.511L98,43.966h0a12.9,12.9,0,0,0,3.175-.22c.115-.141,1.129-.291,1.155-.45.106,0,0,0,0,.062a27.583,27.583,0,0,0,2.8-1.288,8.307,8.307,0,0,0,1.041-.794,5.177,5.177,0,0,0,.344.511,9.277,9.277,0,0,0,4.409,3.087,17.3,17.3,0,0,0,1.94.291h-.053a5.723,5.723,0,0,1,1.34.309c0-.071.265,0,.185-.106.247-.053.414.185.758.168,0,0,0-.071.062,0,.882-.088-.168.062.952.212a30.945,30.945,0,0,0,4.665-.538c-.088,0-.15-.053,0-.088.185.15.485-.159.758-.168,0,.044-.132.088-.194.123a18.916,18.916,0,0,0,1.852-.547,12.443,12.443,0,0,0,1.6-.767c-.053.106.273-.088.406-.123.273-.423,1.094-.582,1.455-1.067h0a16.015,16.015,0,0,0,2.646-2.593,8.641,8.641,0,0,0,.432.882,7.813,7.813,0,0,0,2.813,2.416,12.963,12.963,0,0,0,6.376.882,13.792,13.792,0,0,0,6.173-1.949c-.22.079,0-.088.141-.22h.071l.238-.247c.273-.185.22,0,0,.132a11.464,11.464,0,0,0,1.041-.732l.247-.194.141-.123h.141a19.312,19.312,0,0,0,2.452-.1c.1-.123.882-.132.882-.273.079,0,0,0,0,.062,1.146-.335,1.208-.344,2.284-.626.309-.132.591-.309.882-.467a4.409,4.409,0,0,0,.6,1.164,4.013,4.013,0,0,0,1.808,1.737,4.356,4.356,0,0,0,1.041.247,2.593,2.593,0,0,0,.829,0,2.646,2.646,0,0,1,.661.15,6.958,6.958,0,0,0,3.1-.362l.053.071a20.407,20.407,0,0,0,2.848-1.437c.2-.2.97-.882.556-.644.291-.265.291-.053.529-.388l-.212.335a11.139,11.139,0,0,0,1.764-1.914,1.2,1.2,0,0,1-.088.326c-.3.547-.547,1.94-.944,3.069-.123.37-.053.82-.459.794a5.027,5.027,0,0,0-1.085.388l-.053-.062c-.882.238-2.152.582-3.333.979a6.006,6.006,0,0,0-1.155.608l-.071-.053a2.319,2.319,0,0,0-.785.635l-.256.132c-.247.123-.344.194-.679.37a8.088,8.088,0,0,0,.882-.794c-.705.335-1.261.882-1.711,1.12a2.532,2.532,0,0,0-.882.882c.079-.123-.344.265-.115,0a3.854,3.854,0,0,0-.714.97,2.312,2.312,0,0,1,.265-.353c-.088.2-.291.52-.229.582-.115.176-.22.353-.317.538-.079,0,.176-.538,0-.265a7.31,7.31,0,0,0-.309,1.032,8.068,8.068,0,0,0-.476,2.169,4.727,4.727,0,0,0,1.693,4.171,5.626,5.626,0,0,1-1.5-1.764,10.584,10.584,0,0,1-.573-1.87,3.754,3.754,0,0,0-.159-.556,5.873,5.873,0,0,0,.811,3.369,5.776,5.776,0,0,0,2.557,2.161,11.755,11.755,0,0,0,6.482.564,10.582,10.582,0,0,0,4.55-2.037,10.944,10.944,0,0,0,2.646-3.633,28.817,28.817,0,0,0,1.534-4.065c.212-.688.406-1.376.6-2.064l.273-1.023h0l.247-.123a15.591,15.591,0,0,0,3.721-2.487c-.256.185,0-.088.168-.309h.079l.291-.37c.309-.326.247-.115,0,.159a22.814,22.814,0,0,0,3.413-4.356,10.15,10.15,0,0,0,6.861,3.8,14.992,14.992,0,0,0,2.019-.185V40.9a6.173,6.173,0,0,1,1.411,0c0-.071.273,0,.159-.141.229-.115.459.1.8,0a.044.044,0,0,1,.062-.044c.882-.291-.159.123,1.014,0a18.66,18.66,0,0,0,4.515-1.9c-.079.053-.168,0,0-.079.238.079.423-.335.688-.432,0,0-.1.123-.15.176a17.138,17.138,0,0,0,1.6-1.182c.432-.485,1.076-.882,1.279-1.305,0,.123.229-.185.353-.265.159-.476.838-.944,1.076-1.5v.044c.379-.6.8-1.2,1.138-1.852a10.584,10.584,0,0,0,.529-.988l.52-1.129a1.146,1.146,0,0,0-.511-1.543ZM163.32,51.788v-.053h0Zm.556-.644-.062-.088a.788.788,0,0,0,.141.062c.044.009,0-.079,0-.141s.044,0,.062.053,0-.159,0-.176h0a.979.979,0,0,0,.3-.159,3.678,3.678,0,0,1-.706.82.335.335,0,0,0,.088-.185l.044.053C163.743,51.268,164.007,51.365,163.875,51.144Zm.617-.679a.273.273,0,0,0,0-.141h.088Zm.194-.767c0-.159-.317-.3-.317-.3a.882.882,0,0,1-.511.741.329.329,0,0,1-.15.282c-.185.344-.608.423-.794.679a.124.124,0,0,1,.044.106h0v.088s-.062-.079-.053-.1a.944.944,0,0,1-.317.176c0,.106-.053,0,0,.141v-.053c0-.053-.071.088-.159,0-.362-.053-.494-.053-.494-.115a.882.882,0,0,1-.168-.776c-.176-.106-.062-.168-.185-.291h0c-.053-.088.044-.079.141-.123-.062,0,0,0-.106-.071s.159,0,.132,0h0c-.079-.15.044,0,.194,0s.053-.406.212-.52h-.062c.15.088,0-.079.071-.071a.15.15,0,0,1,0,.062c.115,0,.071-.141.176-.15h0c0-.141.168-.079.132-.185,0,.053.062,0,.1,0-.115-.185.15-.053.106-.194h0c.141-.159.344-.265.467-.476s.317,0,.379-.176,0-.062,0-.088,0,.053.062.062.15-.071.22-.115,0-.053,0-.1c.159.071.176-.159.309-.115-.115-.141,0-.115,0-.168s.044,0,.053.071.1-.079.132,0,0-.123,0-.106,0,0,.062,0c0-.115,0-.229.044-.185v.176c.079-.15.071.053.256-.238l-.062.123c.159-.185.115,0,.423-.344a1.059,1.059,0,0,0-.132.212l.238-.185s-.088.106-.132.15-.2.247,0,.141l-.088.079c.088-.053.176,0,.071.053a.3.3,0,0,0,.2-.062c.106-.062-.15.079-.062.062H165c-.053.115,0,.176,0,.3-.141,0,0,.106-.106.2.062.071-.062.141.088.22h-.071a.988.988,0,0,1-.106.256c0,.053.079.079.106.132h-.071a.529.529,0,0,0,.212.141h0c-.044,0,0,0-.062.062a.573.573,0,0,0-.2-.15c0,.053.132.159,0,.168s0,.088.079.123-.062,0-.1,0a.088.088,0,0,0,0,.088h0c.062,0,.071.071.15.088-.071,0-.106-.071-.159-.053l.141.132a.242.242,0,0,1-.044.168,4.507,4.507,0,0,1-.273.661C164.642,50.042,164.863,49.928,164.687,49.7ZM161.477,51.956Zm-.317-.362Zm0-.291-.079.053a.265.265,0,0,0-.044-.176h.123s0,.079.053.1.009.018-.044.026Zm-.106-.229Zm3.9-1.825Zm0-.123v-.044c0-.044.035.026.035.044Zm-3.907,7.937a5.96,5.96,0,0,1-.794,0c.291-.009.564-.026.829-.026Zm.467-5.053h-.044s.071-.071.079.018Zm.229.079Zm.212.062Zm.82-.123Zm4.877,3.254-.088.071ZM21.26,23.622a3.448,3.448,0,0,1-.141.564l.132-.6Zm.335,3.184-.335.45c0-.071.044-.168.379-.564Zm1.473-11.023v.088h0A.281.281,0,0,1,23.068,15.782ZM51.588,33.1a1.252,1.252,0,0,0-.132.37l-.053-.044c0,.256-.326.335-.176.591l.071.088h-.168c-.044,0-.062.194,0,.247s0,0-.071,0,0,.247,0,.317h0a2.91,2.91,0,0,0-.37.538,9.815,9.815,0,0,1,.9-2.108ZM49.78,38.472Zm-.115.582a.176.176,0,0,1,.053-.1.511.511,0,0,0,.194.229c.053-.123-.115-.282,0-.335s0-.194-.071-.22c0,0,.079-.053.106,0a.265.265,0,0,0,0-.168h0a.354.354,0,0,0-.132-.123c-.071-.026,0-.062,0-.1s.1.106.15.053l-.123-.2.079-.362c.106-.511.22-1,.353-1.464-.053.379-.3.732-.132,1.1a.6.6,0,0,0,.3.467,4.242,4.242,0,0,1,.679-1.931,2.258,2.258,0,0,1,.22-.714,10.8,10.8,0,0,1,1.288-2.222c-.053,0-.071-.071-.062-.115h0v-.106c0-.044.088,0,.062.088a2.011,2.011,0,0,1,.635-.547c0-.115.123-.071.079-.185s0,0,0,.044c.15-.106.176-.15.353,0a1.067,1.067,0,0,1,.732.2,1.508,1.508,0,0,1,.45.882,8.722,8.722,0,0,1,.256,2.734c.168.168.062.37.2.564h-.053c.062.168,0,.194-.141.379.062,0,0,.079.115.062s-.168.106-.132.2.062,0,0,0c.088.273-.053-.053-.212.247a4.7,4.7,0,0,1-.176,1.323h.079c-.185,0,0,.159-.071.212s-.044-.053-.053-.071c-.132.22,0,.22-.106.256h0c.106.176-.123,0-.088.088,0-.071,0-.053-.123-.053-.079.238-.459.115-.564.344h0a2.646,2.646,0,0,0-1.155,1.473c-.115.317-.4.67-.344,1.085,0,.071.071,0,.088.071s-.062,0-.088,0a2.3,2.3,0,0,1,0,.7s.062.088.106.053a.547.547,0,0,0,.062.4s.079.071,0,.088h.15c.018,0,0,0,0,.053a.194.194,0,0,1-.115,0c0,.044,0,.079-.115.071s0,.132-.062.159a.666.666,0,0,1-.265.088.123.123,0,0,1-.106.2v-.15c-.229.212-.617.053-.961.22v-.1a2.828,2.828,0,0,1-.882-.273.705.705,0,0,0-.1-.291c-.115-.079-.123-.123-.273-.159s0-.088.053-.123a.382.382,0,0,0-.1-.441h.079c-.088-.115-.229-.309-.141-.467-.062,0-.1-.194-.185-.123,0-.062.132-.044.044-.106l.115.062A6.412,6.412,0,0,0,49.559,41c.141-.088,0-.335.115-.52-.062-.132.071-.317-.079-.423h.071a4.674,4.674,0,0,1,.141-.556c0-.115-.071-.132-.1-.229h.185c0-.1-.123-.15-.194-.194s-.035,0-.035-.026ZM55.38,32.3a.309.309,0,0,0,.044.071.08.08,0,0,1-.079-.071Zm.37,1.111h0v-.044c0-.044,0,.026,0,.044Zm0,.6.088-.088h0V34.3l-.123-.106s0-.194-.053-.247.009.053.062.062Zm.106.52Zm-.388-2.1Zm-.379-.556v.044a.212.212,0,0,0-.079,0,.335.335,0,0,1,.053-.044Zm-1.9-.282h-.062Zm-1.094.882v.062h0Zm2.6-.882.079.053H54.7Zm.265.159Zm-4.5,4.295c0,.071-.053.062-.1.053s.062-.2.1-.3a.776.776,0,0,0-.026.238Zm-9.436,2.54a18.035,18.035,0,0,1-1.534,2.037c.529-.67,1.041-1.393,1.543-2.143a.432.432,0,0,1-.009.106ZM33.606,43.878Zm41.448-7.849Zm1.764,6.4v-.115c.062,0,.079.088.123.115s.176-.088.168-.185,0,.053,0,.079.132-.2.229-.212v.053a1.7,1.7,0,0,0,.617-.229,3.016,3.016,0,0,1-1.649.705,2.055,2.055,0,0,1-.326,0,.67.67,0,0,0,.238-.053v.062c.2-.115.476.088.582-.185Zm1.658-.944a.741.741,0,0,0,.115-.238c0-.071.071,0,.106,0a3.062,3.062,0,0,1-.238.273Zm-3.889-3.21a.063.063,0,0,1,0,.1h0a.274.274,0,0,0,0-.1ZM74.587,38.216Zm-.1.626a.282.282,0,0,0,0,.079h0a.562.562,0,0,1-.018-.079Zm0,.194Zm0,.309h0s-.053.018-.053,0Zm.723,2.919h.053c.053,0-.1-.018-.106,0Zm-.388-5.071v-.009ZM75,36.312l.088.132v.194l-.106.062h0Zm3.88,4.789c.185-.335.52-.608.45-1.014a.556.556,0,0,0-.2-.511,2.5,2.5,0,0,1-1.164,1.517,1.243,1.243,0,0,1-.476.459,1.631,1.631,0,0,1-1.014.353,1.252,1.252,0,0,1-.7-.176.1.1,0,0,1-.106.062h-.088s.053-.079.088-.062a1.305,1.305,0,0,1-.344-.67c-.123,0-.053-.15-.168-.132s0,0,.053,0c-.1-.212-.123-.229,0-.459a12.178,12.178,0,0,1,.256-2.787,28.218,28.218,0,0,1,.564-2.937c-.132-.2,0-.379-.088-.617H76c0-.176.079-.185.22-.344-.062,0,0-.079-.106-.088s.185-.062.176-.168-.062,0,0,0c0-.282,0,.071.247-.194a3.836,3.836,0,0,1,.511-1.217s-.088,0-.071-.044c.176.062,0-.15.132-.176s0,.062,0,.088c.168-.115.168-.309.335-.414a.1.1,0,0,1,0,.053c0-.229.291-.265.291-.423,0,.071.088,0,.132,0-.079-.247.273-.168.282-.37h0a5.7,5.7,0,0,1,1.094-.714c.238-.088.529,0,.785-.053.053,0,0-.079.053-.1s0,.062,0,.088c.132-.115.317,0,.485,0,0,0,.053,0,.053-.088.044.141.185,0,.185.088.141-.141.176-.088.194-.071a.282.282,0,0,1-.115.071.272.272,0,0,1-.044.141c-.044.062.115,0,.071.079s0,.22-.115.317a.154.154,0,0,1,.106.247l-.141.026c0,.362-.247.82-.141,1.261H80.53a7.479,7.479,0,0,0-.088,1.252,1.023,1.023,0,0,0-.15.37.343.343,0,0,0,.132.335c.132.123-.079.071-.123.088-.053.176-.212.335-.106.5h-.071a.635.635,0,0,1,0,.538c.053.062,0,.229.15.168s-.132,0-.071.106l-.1-.088a4.674,4.674,0,0,0-.123,1.049c-.15.079-.053.344-.159.529.044.132-.1.317.044.441H79.79a3.827,3.827,0,0,1-.159.573c0,.115.071.141.088.238H79.64c0,.106.123.159.194.212s0,0,0,.062a.168.168,0,0,1-.053.106.52.52,0,0,0-.185-.238c-.053.123.106.282,0,.344s0,.194.062.22-.071.062-.106,0a.256.256,0,0,0,0,.168h0a.338.338,0,0,0,.141.115v.106c-.062,0-.1-.106-.15-.053l.123.2-.079.37a6.349,6.349,0,0,1-.758,1.235Zm.882-2.019ZM101.81,35.13Zm12.134-2.213a.309.309,0,0,0,.071.335.414.414,0,0,0,.053.079V33.4h-.194a.918.918,0,0,1,.009-.511Zm15.221-5.124a2.992,2.992,0,0,1,.079-.5,1.108,1.108,0,0,0-.141.476Zm-15.212,5.088A.289.289,0,0,1,114,32.7a.476.476,0,0,1-.106.159Zm2.266-4.471Zm-2.037,4.824h0s-.079-.026-.062-.026Zm3.527-5.177v.053c.062-.088.088,0,.168.088v-.132c0-.132.044.159.088.106s0-.062,0,0c.079-.115,0,.071.044.176s.212-.071.212.062.062-.053.071,0c-.15.1.062,0,0,.071a.088.088,0,0,1-.062,0c-.053.071.071.088,0,.168h0c.141,0,0,.15.062.185-.071,0-.053,0-.088.044.22,0-.071.132.071.2h0a3.748,3.748,0,0,0-.062.661c0,.141-.238.2-.2.37,0,0,.071,0,.071.062s-.053,0-.088,0-.071.141-.115.22,0,.053.071.062c-.176,0-.062.238-.212.265.176.071.053.106.071.159s-.062,0-.088,0a.194.194,0,0,1-.132.168s.071.115,0,.132-.071.088-.141.1c.1.062.123.168.053.176l-.106-.115c0,.194-.309.238-.317.5L117,31.788c-.071.212-.282.238-.335.494a.318.318,0,0,0-.194,0,.45.45,0,0,0,0,.247.115.115,0,0,1-.1-.053c-.026-.053-.22,0-.212.115V32.52c0,.106-.079.238-.185.185s-.053.132,0,.194-.079-.106-.071,0v-.115a1.429,1.429,0,0,0-.441.265c-.088-.106-.15.079-.273,0,0,.088-.159,0-.159.176v-.071a.732.732,0,0,1-.282,0c-.062,0,0,.106-.088.15v-.079a.582.582,0,0,0,0,.22H114.6a.476.476,0,0,0,.071-.238c-.053,0-.088.1-.132.1a1.649,1.649,0,0,1,.379-.653.609.609,0,0,1,.079-.379c.088-.45.494-.785.573-1.235a.115.115,0,0,1-.106-.079h0l-.053-.071s.1,0,.088.053a3.827,3.827,0,0,1,.229-.467c-.106-.062,0-.079-.071-.15h0c0-.141,0-.15.194-.168a11.234,11.234,0,0,1,.882-1.014,2.425,2.425,0,0,1,.882-.732c-.106-.273,0-.194.053-.379Zm-1.9.75Zm-.194.22Zm-.159.212h0s-.044-.035-.044-.026Zm-.459.714Zm-.309.617Zm-.229.882.088.062h-.159c-.044,0,0,.106.071.141s-.053,0-.079,0,.088.141.044.176h0a1,1,0,0,0-.247.265,8.1,8.1,0,0,1,.379-1.1.467.467,0,0,0,0,.22h-.062c0,.044-.282.071-.079.229Zm-.406.882a.265.265,0,0,0,.044.141h-.079a1.134,1.134,0,0,1-.009-.115Zm.044.988Zm2.575-5.335Zm-.106.079a.732.732,0,0,1,0,.115s-.062.088-.079.106,0,0,0-.062H116.4ZM100.69,40.289h0a2.125,2.125,0,0,1,.406-.062Zm-9.6.406a.07.07,0,0,1,0-.053h0a.1.1,0,0,1-.018.079Zm-2.646-6.746Zm-.229,1.208v-.009ZM87.9,37.035h0v-.062a.334.334,0,0,0,0,.062Zm-.071.168h0v-.062a.053.053,0,0,1-.018.053Zm-.6,3.527H87.18a.115.115,0,0,0,0-.053.282.282,0,0,0,.053.062Zm.229-1.57v.106h0a.441.441,0,0,0,0-.1Zm.326-1.764a.247.247,0,0,0,0,.088h0a.44.44,0,0,1,.026-.062Zm.2-1.085s.053,0,0,.115h0a.388.388,0,0,1,0-.088Zm0-.062h0s.009.026.018.026Zm.37-2.072.1.141v.212l-.106.062h0a3.184,3.184,0,0,1,.026-.388Zm2.646,6.173v.079c0,.026-.018-.071-.026-.1Zm-3.968,1.305a1,1,0,0,0,0,.3h-.071c-.071,0-.079.256.062.256a.317.317,0,0,0,.353,0l.115-.079v.15c0,.044.2,0,.247-.071s0,.053,0,.079.238-.1.326-.053h0a2.037,2.037,0,0,0,.714.194,6.341,6.341,0,0,1-1.852-.212ZM91.025,41a1.94,1.94,0,0,1-1.764.688,1.464,1.464,0,0,1-.723.079,2.487,2.487,0,0,1-.644-.071.05.05,0,0,1-.053-.071.15.15,0,0,1,.053,0,1.42,1.42,0,0,0,.053-.273v-.388c0,.044-.1,0-.106-.079h0l-.026-.15c0-.079.106,0,.106,0,.071-.406.106-.776.2-1.173-.115,0,0-.2-.088-.247h.053a.547.547,0,0,1,.185-.538c.291-1.058.406-2.108.635-3.157s.265-2.152.432-3.254c-.159-.176,0-.459-.159-.591h.053c0-.141,0,0,.212-.159-.053-.044,0-.071-.062-.123s.194,0,.22-.106h0c.079-.282,0,.079.317-.088a2.963,2.963,0,0,1,1-.935s-.079-.053,0-.079c.132.132.1-.115.2-.106s0,.071,0,.1c.212-.053.3-.229.511-.247h0c.106-.2.406-.123.476-.265,0,.079.1,0,.141,0,0-.247.335,0,.441-.212h0a1.526,1.526,0,0,1,1.041.053c.159.106.088.4.247.617,0,.044.071,0,.1,0s-.062,0-.079.053c.115.115.053.317.062.5a.062.062,0,0,0,.106,0c-.115.212.053.511-.053.732.194-.071.1.141.132.22s-.062.044-.1,0a.794.794,0,0,1-.071.459c0,.1.106.141.062.247s0,.238-.1.344c.106,0,.168.15.1.256L94,32.978c0,.37-.256.882-.176,1.305h-.1c0,.45-.238.829-.212,1.3a1.349,1.349,0,0,0-.2.362.732.732,0,0,0,.071.37c0,.053-.088.062-.132.071a2.013,2.013,0,0,1-.159.229s0,.071,0,.159l-.071-.053c.088.168-.053.256-.185.194s-.212.15-.1.212c-.071,0-.079-.115-.132,0v-.132a1.834,1.834,0,0,0-1.058.653c-.185,0-.282.3-.467.467,0,.15-.212.335-.106.494H90.9a4.233,4.233,0,0,0-.2.661c0,.141.088.15.115.265h-.071c0,.123.168.15.238.185h0a.371.371,0,0,1,0,.159.635.635,0,0,0-.247-.2c0,.159.185.282.088.388s0,.22.15.2c0,0,0,.1-.1,0a.317.317,0,0,0,.1.168v-.044c0-.044.106.071.176.053v.1h-.159l.229.123c.062.123.106.247.176.362a3.7,3.7,0,0,1-1.367.829c.362-.176.811-.256.952-.661a.538.538,0,0,0,.018-.2Zm-1.279,1.323a1.828,1.828,0,0,0-.353.079.785.785,0,0,0,.256-.132C89.711,42.194,89.728,42.246,89.746,42.326Zm50.319-5.115s-.044-.088,0-.132,0,.053,0,.1ZM140.065,37.449Zm-3.139-6.667Zm0,.326v.176l-.106.044h0a.986.986,0,0,1,.106-.335c-.053.009-.026.044-.009.079Zm-.291.705v.079a.388.388,0,0,0,0-.088Zm-.256,1.614h0v-.062a.16.16,0,0,0-.009.026Zm-.062.079h0a.176.176,0,0,0,0-.062.053.053,0,0,1,0,.062Zm0,.291h0a.335.335,0,0,1,0-.088.221.221,0,0,0,0,.115Zm-.088,1.473v.115h0a.468.468,0,0,1,0-.115Zm.194,1.393h-.053a.079.079,0,0,0,0-.044S136.4,36.664,136.423,36.664Zm0-3.871s.053,0,0,.088h0a.221.221,0,0,1-.009-.088Zm0-.062Zm.362,4.965h-.062c.2.115.1.45.379.414h.115c0,.062-.053.106-.062.15s.141.123.212.071,0,0-.062.062.238,0,.282.079h-.044a.988.988,0,0,0,.547.4,2.064,2.064,0,0,1-1.552-1.552,1.235,1.235,0,0,0,.247.379Zm3.131,0a1.129,1.129,0,0,1-1.349.52c-.15,0-.406.071-.494,0-.547-.132-.653-.882-.882-1.6h-.123l-.088-.053c0-.062.088-.053.106,0a4.674,4.674,0,0,1-.115-.935c-.123,0,0-.176-.132-.185h.053c-.071-.229-.079-.247.079-.45a23.562,23.562,0,0,1,.344-2.646,8.589,8.589,0,0,1,.75-2.522c-.088-.212.079-.326,0-.547h.044c0-.159.106-.132.273-.22-.044,0,0-.071-.071-.115s.194,0,.212-.088h0c.062-.256,0,.062.291-.062a1.984,1.984,0,0,1,.882-.75s-.071-.053,0-.071c.115.132.088-.106.185-.071s0,.062,0,.079c.176,0,.265-.159.441-.132h0c.1-.176.335,0,.414-.15,0,.071.071.044.106.071.071-.229.273,0,.379-.1h0a1.676,1.676,0,0,1,.882.256c.15.115.071.4.229.564s.071,0,.106,0-.062,0-.079.053a3.473,3.473,0,0,0,.071.432s0,.053.1,0c-.115.185.088.423,0,.626.185-.071.106.115.141.185s-.062,0-.1,0a.776.776,0,0,1,0,.414c0,.079.123.115.079.212s0,.212-.088.3a.15.15,0,0,1,.132.22l-.159-.053c.053.326-.185.75-.071,1.155h-.1a5.1,5.1,0,0,0-.079,1.155,1.085,1.085,0,0,0-.168.335,1.615,1.615,0,0,0,.141.238h-.106c-.035,0-.044.071-.088.062a.331.331,0,0,0-.1,0v-.071a.141.141,0,0,1-.115.123.741.741,0,0,1-.3.071c0,.079-.176.176-.062.22-.053.053-.1-.1-.123,0v-.132a1.561,1.561,0,0,0-.776.785c-.185,0-.185.291-.353.441,0,.141-.168.3,0,.441h-.079c-.062.141-.123.353-.194.556s.079.141.106.238h-.229c0,.106.141.141.212.176s0,0,0,.053a.238.238,0,0,1,0,.115.635.635,0,0,0-.229-.194c0,.132.168.256.044.344s0,.2.132.194c0,0-.044.079-.106,0a.238.238,0,0,0,.106.185V37.3c0-.026.106.062.185.053a.185.185,0,0,0,0,.088h-.176l.229.123a2.356,2.356,0,0,0,.123.317,2.69,2.69,0,0,1-1.155.767c.326-.15.714-.229.794-.608a.494.494,0,0,0-.088-.362Zm-.952,1.173a1.764,1.764,0,0,1-.309,0,.45.45,0,0,0,.22-.088C138.91,38.8,138.963,38.8,138.963,38.869Zm35.372-1.27a1.949,1.949,0,0,1-.132.529,2.541,2.541,0,0,1,.115-.573c-.026.018-.018.044-.009.044Zm22.549-10.265Zm.935-.247h0l.159-.053Zm2.646-4.718a4.524,4.524,0,0,0-.511-1.808,3.756,3.756,0,0,1,.511,1.72Zm-.882-2.557c.176.185.132.22.1.256a4.321,4.321,0,0,0-.741-.767,4.974,4.974,0,0,1,.644.529Zm-9.163-1.446c.723-.265,1.534-.176,2.055-.441l.194-.123c.176,0,.168.1.309.115a2,2,0,0,0,.776-.15c.088-.079,0,.053,0,.079a9.438,9.438,0,0,1,1.094-.088h-.115a11.05,11.05,0,0,1,1.975.432,11.464,11.464,0,0,0-3.272-.265,15.662,15.662,0,0,0-3.907.705l.961-.37c.026.062-.035.1-.071.123Zm-3.669,1.473a.591.591,0,0,1-.1.062.3.3,0,0,0,0-.1.055.055,0,0,1,.1.053Zm-3.589,3.016-.106.071.053-.079Zm-2.522,4.991a.446.446,0,0,1-.062.273v-.238c0-.062.053-.009.062-.018Zm-.229,1.067h0v.2a.565.565,0,0,1,0-.2Zm-.062.556v.238a2.012,2.012,0,0,0,0-.238h.062Zm-1.323,5.582-.238.379a4.335,4.335,0,0,0,.212-.4.149.149,0,0,1,.044.018Zm-1.9,2.566-.044.079-.326.335a1.979,1.979,0,0,1,.388-.414Zm-2.011-3.228c-.106.132.062-.256,0-.335l-.176.441v-.256c.15-.714.291-1.411.441-2.108v.785A13.69,13.69,0,0,1,175.119,34.389Zm.556-3.527.053-.212v.212s-.026,0-.053.053Zm-22.6,4.692c.123,0-.141.123-.141.2l.309-.159a7.777,7.777,0,0,1-1.314,1.023l.344-.362a4.6,4.6,0,0,0,.8-.705ZM151,37.035h-.053l.1-.062C150.991,37.035,150.991,37.035,151,37.035Zm-22.047-8.369h0v.212a1.113,1.113,0,0,1-.026-.194Zm-.15,1.455a.168.168,0,0,1,0,.071.168.168,0,0,0-.026-.053Zm-5.353,4.154h0l.388-.309a1.12,1.12,0,0,1-.414.326Zm.988-.882a.362.362,0,0,1,0-.106l.123-.15a.547.547,0,0,1-.15.247Zm1.817-5.291a5.547,5.547,0,0,0-.494-1.843,4.409,4.409,0,0,1,.467,1.852Zm-.794-2.549c.15.194.088.229.062.256a5.592,5.592,0,0,0-.511-.714c.123.168.3.317.423.476ZM117,22.854c.714-.194,1.49,0,2.011-.247l.2-.1c.168,0,.159.106.291.141a1.558,1.558,0,0,0,.758-.044c.071.053,0,.053,0,.079a5.212,5.212,0,0,1,1.058.071h-.106a8.078,8.078,0,0,1,1.534.635,9.7,9.7,0,0,0-4.286-.67,16.835,16.835,0,0,0-2.355.3l.97-.265c-.009.044-.079.071-.106.106Zm-3.766.952a.071.071,0,0,1,.053.044l-.106.053a.212.212,0,0,0,.053-.1Zm-3.8,2.469h0l-.079.071Zm-3.1,4.409a.838.838,0,0,1-.1.256.887.887,0,0,1,.071-.229c.009-.053.026.018.026.009Zm-.362.961v.194A.458.458,0,0,1,105.972,31.647Zm-.141.529a1.276,1.276,0,0,1-.062.229,2.342,2.342,0,0,0,0-.247s.053.044.062.053Zm-.388,1.764h0v.273s-.062-.035.009-.265Zm0,.52Zm-4.506,3.951c-.123.106.106-.229.079-.309l-.256.379.062-.185c.238-.6.45-1.208.626-1.825a4.323,4.323,0,0,1-.062.591c-.123.247-.344,1.094-.476,1.358ZM64.824,42.07Zm-2.363.67h-.432l.071-.159c.212,0-.15,0,.159-.044a.238.238,0,0,0-.132,0,18.889,18.889,0,0,0,1.146-2.725,17.382,17.382,0,0,0-.617,1.94,2.566,2.566,0,0,0-.194.988Zm1.3-4.762c.071-.309.123-.626.168-.935v.732c0,.22-.115.2-.168.2Zm-.45,1.764c.115-.344.2-.688.291-1.023a7.055,7.055,0,0,1-.291.961Zm-.661-9.859c0,.053,0,0-.071,0,.511.45.52,1.191.952,1.526l.159.115c0,.168-.062.176-.062.3a1.269,1.269,0,0,0,.3.617c.106.053-.062,0-.088,0a4.744,4.744,0,0,1,.282.882l-.062-.079a14.709,14.709,0,0,1,0,1.764A8.616,8.616,0,0,0,61.95,29.1a8.943,8.943,0,0,1,.7.75Zm-2.593-2.258a.071.071,0,0,1,0,.062l-.141-.071c.044-.035.115-.009.141-.026Zm-3.871-.979h0a1.693,1.693,0,0,0-.212,0Zm-4.762.511-.212.053.168-.062Zm-.882.265-.168.053.159-.053Zm-.459.15-.194.088.176-.123H50.1Zm-1.446.626h0l-.212.106s.026-.088.229-.141Zm-.4.238ZM45.988,29.98c-.062.053-.115.115-.185.168h0A.5.5,0,0,1,45.988,29.98ZM44.6,31.206c.106,0-.088.1-.071.159l.22-.115a.15.15,0,0,0,0,.062c-.229.265-.441.547-.653.829a.886.886,0,0,1,.106-.326A2.307,2.307,0,0,1,44.6,31.206Zm-.97,1.508h0v-.071S43.624,32.714,43.633,32.714Zm-4.612,8.431A11.711,11.711,0,0,1,37.5,42.493a8.4,8.4,0,0,0,1.1-1.049c.326-.362.37-.317.423-.3ZM28.73,31.576c-.141.291-.459.485-.326.785,0,.115-.044,0-.079-.1a21.062,21.062,0,0,0,.608,4.171l.176.37a2.945,2.945,0,0,0,0,.626,13.651,13.651,0,0,0,.5,1.473c0,.168-.071,0-.1,0a15.538,15.538,0,0,0,.811,1.984l-.115-.168a6.385,6.385,0,0,0,1.376,2.31,2.875,2.875,0,0,0,1.764.882c-3.192-.309-4.639-6.032-5.009-11.782.423-.582.882-1.155,1.367-1.764-.115.141-.238.273-.344.414S28.9,31.311,28.73,31.576Zm4.824-5.291.168-.159a.688.688,0,0,0-.1.159c-.062.018-.071,0-.079-.009Zm1.861-7.5-.1-.106Zm-9.286,2.557c-.22.22-.441.459-.653.688l.556-.626Zm-1.437,1.587c-.123.132-.238.273-.353.406a1.887,1.887,0,0,1,.3-.362S24.673,22.925,24.691,22.925Zm-.785.882-.309.362c.088-.123.194-.265.273-.388S23.906,23.807,23.906,23.807Zm-1.191,1.473v.053a.309.309,0,0,1,.044-.071ZM22.2,19.988c-.115.15.079-.309,0-.4l-.212.511a1.085,1.085,0,0,0,0-.238c.185-.767.379-1.561.582-2.346a5.266,5.266,0,0,1-.079.75c-.035.247-.212,1.314-.291,1.676ZM76.35,57.247h0l-.053.265A2.3,2.3,0,0,1,76.35,57.247Zm5.785,4.48a11.764,11.764,0,0,1-1.64.335H80.2a5.988,5.988,0,0,0,3.06-.97,2.513,2.513,0,0,1-1.129.635Zm1.3-.882h0v0Zm.353-1.473c-.053.406-.115.4-.159.406.106-.556.2-1.1.309-1.658-.062.388-.115.82-.15,1.2ZM88.7,46.735c-.106,0,0-.044.079-.062a6.614,6.614,0,0,1-1.843-.088c-.265,0-.591-.159-.767-.1a2.645,2.645,0,0,0,0,.723v.335c-.088.282-.159.247-.229.459a4.269,4.269,0,0,0-.132,1.261c.062.159,0-.071-.071-.071-.123.556-.106,1.226-.238,1.764v-.176c-.265,1.041-.547,2.2-.8,3.369.485-2.566.97-5.132,1.464-7.716a12.593,12.593,0,0,0,4.277.132,16.465,16.465,0,0,1-1.737.168Zm6.376-1.587h-.079l.185-.079a.388.388,0,0,0-.123.106Zm6.958-2.4.2-.062-.168.071Zm5.027-1.437h0a.247.247,0,0,0-.071-.044s.053.088.053.071Zm22.655-1.87c.115.238.247.467.37.688l-.406-.626a.376.376,0,0,1,.018-.035Zm10.424,3.827c-.882.3-1.922.123-2.6.379l-.247.1c-.229,0-.212-.115-.388-.15a2.9,2.9,0,0,0-.979.071c-.1.071.044-.053.044-.079a8.643,8.643,0,0,1-1.358-.106h.141a8.131,8.131,0,0,1-2.407-1.049,9.5,9.5,0,0,0,5.168,1.1,15.291,15.291,0,0,0,3.818-.556c-.432.141-.882.273-1.243.379-.1,0-.009-.035.035-.062Zm4.612-1.764.141-.088s-.079.079-.079.115-.071.018-.079,0Zm5.441-1.579h.026Zm7.2,6.358Zm-1.173,1.191c-.053.079-.123.15-.176.229.009-.009.062-.088.159-.2Zm.485,8.307A6.94,6.94,0,0,0,160.233,57a6.958,6.958,0,0,1-2.513-.608,5.908,5.908,0,0,1-1.032-.582Zm5.538,1.27c-.423.062-.432,0-.459,0a10.761,10.761,0,0,0,1.764-.2Zm10.335-11.2c-.053.1,0,0-.044-.106-.22,1.3-.829,2.54-.882,3.527v.362c-.132.282-.194.238-.309.441a6.116,6.116,0,0,0-.414,1.3c0,.176,0-.079-.053-.088a13.225,13.225,0,0,1-.767,1.764l.053-.185a8.528,8.528,0,0,1-1.94,2.1c2.293-2.055,3.369-5.52,4.727-10.873h.062a.185.185,0,0,0-.1.176Zm1.067-1.191Zm3.616-3.351.159-.15a.37.37,0,0,0-.079.159.071.071,0,0,1-.079-.009Zm4.93-4.409c0-.115.1.123.168.123l-.115-.273.071.062a8.871,8.871,0,0,0,.82.882l-.344-.176c-.106-.088-.485-.485-.617-.608Zm1.561,1.367h-.079s.079.026.079.009Z" transform="translate(-0.499 0.03)"/>
      <path id="Path_146" data-name="Path 146" d="M224.05,38.047l.141-.1Z" transform="translate(-26.458 -4.457)"/>
      <path id="Path_147" data-name="Path 147" d="M225.553,30.044c0-.062-.176,0-.229-.044C225.174,30.194,225.439,30.071,225.553,30.044Z" transform="translate(-26.603 -3.518)"/>
    </g>
  </g>
</svg>
