<svg xmlns="http://www.w3.org/2000/svg" viewBox="734 1279 23.964 32">
  <defs>
    <style>
      .cls-1 {
        fill: #fff;
      }
    </style>
  </defs>
  <path id="arrow_left" class="cls-1" d="M56.956,37.9c0,.57-.285.685-.57.97-6.617,4.564-14.261,9.641-21.62,14.775a1.2,1.2,0,0,1-1.426-.114,1.229,1.229,0,0,1-.228-1.369L41.325,37.9C38.587,32.992,35.507,28.086,33,23.066a1.2,1.2,0,0,1,.57-1.141c.513-.285.913.114,1.369.285,7.473,5.134,13.919,9.527,21.506,14.718A1.121,1.121,0,0,1,56.956,37.9Z" transform="translate(790.956 1332.825) rotate(180)"/>
</svg>
