<?xml version="1.0" standalone="no"?>
<!DOCTYPE svg PUBLIC "-//W3C//DTD SVG 20010904//EN"
 "http://www.w3.org/TR/2001/REC-SVG-20010904/DTD/svg10.dtd">
<svg version="1.0" xmlns="http://www.w3.org/2000/svg"
 width="1024.000000pt" height="1024.000000pt" viewBox="0 0 1024.000000 1024.000000"
 preserveAspectRatio="xMidYMid meet">
<metadata>
Created by potrace 1.11, written by Peter Selinger 2001-2013
</metadata>
<g transform="translate(0.000000,1024.000000) scale(0.100000,-0.100000)"
fill="#000000" stroke="none">
<path d="M2696 10231 c-3 -5 -21 -12 -40 -15 -52 -10 -145 -75 -209 -147 -31
-35 -57 -69 -57 -76 0 -6 -3 -13 -8 -15 -10 -4 -71 -129 -83 -171 -35 -112
-50 -196 -55 -287 -1 -30 -3 -55 -4 -55 -1 0 -2 -17 -3 -38 -1 -20 2 -37 6
-37 5 0 5 -5 2 -11 -4 -5 -7 -33 -7 -61 1 -96 -37 -130 -148 -134 -97 -2 -146
-10 -215 -34 -210 -72 -384 -274 -424 -490 -3 -19 -6 -143 -6 -275 0 -232 1
-242 23 -283 46 -86 117 -141 204 -159 24 -5 154 -8 291 -8 l247 0 1 -25 c2
-38 7 -95 8 -95 1 0 4 -29 6 -65 3 -36 7 -87 10 -115 3 -27 7 -77 10 -110 2
-33 7 -85 9 -115 3 -30 8 -91 11 -135 3 -44 8 -96 11 -115 3 -19 7 -60 9 -90
3 -30 7 -81 9 -113 3 -31 7 -85 11 -120 3 -34 8 -89 11 -122 3 -33 7 -78 9
-100 2 -22 6 -74 9 -115 3 -41 6 -75 6 -75 1 0 3 -20 5 -45 2 -24 6 -74 10
-110 9 -93 13 -145 20 -225 3 -38 8 -88 10 -110 3 -22 7 -74 10 -115 3 -41 8
-91 10 -110 2 -19 7 -73 10 -120 3 -47 8 -98 10 -115 3 -16 7 -63 10 -104 2
-41 7 -91 9 -110 3 -20 8 -74 11 -121 3 -47 8 -105 11 -129 3 -24 7 -66 9 -95
5 -65 14 -167 21 -231 3 -27 7 -77 9 -110 2 -33 7 -89 10 -125 11 -107 14
-142 20 -215 3 -38 7 -90 10 -115 5 -40 11 -109 20 -225 4 -55 15 -180 20
-235 5 -45 10 -105 20 -230 3 -36 7 -83 10 -105 3 -22 7 -76 10 -120 3 -44 8
-91 10 -105 2 -14 7 -61 10 -105 8 -94 11 -133 20 -235 4 -41 9 -95 11 -120 3
-45 9 -105 20 -215 3 -33 7 -88 10 -121 2 -34 6 -86 9 -115 6 -54 10 -100 19
-214 3 -33 7 -82 10 -110 3 -27 8 -86 12 -130 3 -44 7 -93 9 -110 4 -45 14
-156 21 -229 3 -35 7 -83 10 -107 2 -24 6 -78 9 -119 3 -41 7 -88 9 -105 3
-16 8 -68 11 -115 4 -47 8 -101 11 -120 2 -19 6 -69 9 -110 2 -41 7 -100 11
-130 7 -63 62 -240 75 -240 5 0 9 -6 9 -14 0 -17 71 -109 114 -149 67 -61 184
-128 249 -143 9 -2 27 -6 40 -9 75 -18 302 -20 1817 -18 1457 2 1735 4 1735
13 0 1 7 3 15 5 253 58 449 295 475 575 2 25 7 79 10 120 3 41 7 91 9 110 2
19 7 67 10 105 3 39 9 97 12 130 10 109 13 139 19 219 3 44 7 91 10 105 2 14
7 62 10 106 3 44 8 98 10 120 9 103 16 174 21 219 3 26 7 76 9 110 3 33 7 80
10 103 2 23 7 74 10 115 4 40 8 89 10 108 2 19 7 71 10 115 3 44 8 96 11 115
3 19 7 67 9 105 3 39 7 86 10 105 2 19 7 73 10 120 4 47 8 96 10 108 2 13 7
58 10 100 4 43 8 93 10 112 2 19 6 71 10 115 9 104 12 137 20 215 4 36 8 90
10 120 2 30 4 55 5 55 1 0 3 18 5 40 1 22 6 74 9 115 4 41 9 95 11 120 5 51
12 131 20 205 2 28 7 84 10 125 3 41 8 86 10 100 2 14 7 61 10 105 3 44 8 100
10 125 3 25 7 77 10 115 3 39 7 86 9 105 2 19 7 67 10 105 4 39 9 88 11 110 4
37 9 82 20 220 4 54 15 170 31 340 3 33 7 80 9 104 4 44 12 133 20 221 3 25 7
74 10 110 3 36 7 88 10 115 3 28 7 76 10 108 3 31 7 81 10 110 5 48 9 88 19
207 2 19 6 64 10 100 3 36 8 97 11 135 8 97 14 162 20 215 3 25 7 72 10 105 5
56 11 130 21 235 2 25 6 72 9 105 3 33 8 85 10 115 3 30 7 73 9 95 10 100 19
202 20 228 0 15 8 29 16 32 33 10 155 15 373 17 205 1 231 3 267 20 33 17 82
67 86 88 0 3 4 13 8 22 4 10 6 147 4 305 -4 254 -7 295 -24 343 -95 267 -320
433 -619 455 -103 7 -123 42 -124 208 0 149 -7 212 -37 347 -13 61 -100 250
-124 270 -3 3 -20 24 -39 48 -42 54 -130 121 -201 153 l-55 24 -2437 2 c-1404
2 -2439 -1 -2442 -6z m4841 -364 c18 -12 33 -24 33 -27 0 -3 10 -21 22 -40 12
-19 22 -37 23 -40 0 -3 6 -15 13 -27 7 -13 10 -23 6 -23 -3 0 -2 -6 4 -12 6
-7 13 -31 17 -53 4 -22 10 -49 12 -60 3 -16 13 -158 15 -210 2 -108 -15 -156
-67 -182 -13 -6 -897 -9 -2490 -9 -2363 1 -2472 2 -2498 19 -16 10 -33 30 -39
45 -13 32 -17 160 -5 185 4 10 10 41 13 70 13 149 54 262 124 339 44 49 -94
46 2428 46 l2357 1 32 -22z m708 -1036 c17 -8 33 -15 36 -15 17 -2 92 -71 114
-104 42 -63 52 -118 53 -276 l1 -146 -62 -1 c-34 0 -119 0 -189 0 -70 0 -130
-4 -133 -9 -8 -13 -6185 -11 -6210 2 -56 31 -64 56 -62 204 2 119 4 133 30
184 33 67 50 87 103 123 85 57 -126 54 3209 53 2606 -1 3085 -4 3110 -15z
m-961 -1274 c30 -15 55 -55 57 -93 1 -26 -6 -133 -16 -232 -3 -36 -13 -153
-20 -243 -2 -24 -6 -78 -10 -119 -4 -41 -8 -97 -10 -125 -3 -27 -7 -77 -10
-110 -6 -77 -11 -138 -20 -250 -3 -49 -8 -101 -11 -115 -2 -14 -6 -52 -9 -85
-3 -33 -7 -76 -9 -95 -2 -19 -7 -66 -11 -105 -4 -38 -9 -81 -10 -95 -2 -14 -4
-31 -4 -38 -1 -9 -13 -13 -33 -12 -18 1 -37 1 -43 0 -5 -1 -14 -1 -20 0 -5 1
-31 1 -57 1 -27 -1 -70 -1 -98 -2 -27 0 -54 2 -60 6 -5 3 -10 1 -10 -5 0 -6
-5 -8 -11 -5 -6 4 -34 7 -62 6 -122 -3 -147 -2 -156 3 -5 4 -12 2 -15 -3 -4
-5 -19 -6 -34 -3 -15 4 -40 6 -57 5 -76 -8 -144 -4 -155 7 -7 7 -132 113 -145
123 -5 4 -28 21 -50 38 -22 16 -48 36 -57 44 -10 8 -18 12 -18 9 0 -6 -72 47
-82 61 -4 5 -8 7 -8 2 0 -4 -19 5 -42 20 -97 61 -316 152 -433 180 -181 43
-285 56 -450 54 -171 -1 -260 -13 -410 -52 -60 -16 -121 -31 -134 -34 -13 -3
-43 -14 -65 -24 -23 -10 -57 -24 -76 -32 -50 -19 -202 -99 -221 -115 -8 -8
-19 -14 -23 -14 -9 0 -119 -75 -139 -95 -9 -8 -20 -15 -25 -15 -6 0 -12 -3
-14 -8 -1 -4 -22 -22 -46 -41 -24 -18 -61 -50 -82 -70 -22 -20 -52 -38 -67
-40 -15 -1 -37 -4 -48 -5 -11 -1 -32 1 -47 5 -17 5 -28 4 -28 -2 0 -6 -5 -7
-11 -4 -6 4 -34 7 -62 6 -122 -3 -147 -2 -156 3 -5 4 -12 2 -15 -3 -4 -5 -19
-6 -34 -3 -15 4 -40 6 -57 5 -56 -6 -124 -5 -135 2 -5 3 -10 1 -10 -5 0 -6 -5
-8 -11 -4 -15 9 -118 11 -122 2 -6 -20 -29 14 -32 48 -7 75 -15 149 -20 194
-2 25 -7 72 -11 105 -3 33 -7 74 -9 90 -2 17 -6 66 -10 110 -3 44 -8 105 -11
135 -3 30 -7 82 -10 115 -7 97 -12 166 -18 225 -3 30 -8 91 -11 135 -4 44 -9
100 -11 125 -2 25 -6 73 -8 107 -3 34 -8 97 -12 140 -4 43 -7 87 -6 97 2 35
22 72 49 88 24 14 225 16 2170 16 1580 0 2150 -3 2167 -11z m-2009 -1681 c47
-6 84 -12 95 -16 3 -1 8 -2 12 -1 4 0 37 -9 74 -20 37 -11 75 -22 84 -24 10
-2 26 -8 36 -14 11 -5 51 -24 89 -42 203 -93 418 -273 585 -489 64 -82 94
-112 120 -122 25 -8 138 -12 390 -14 195 -1 360 -2 367 -3 6 0 10 -11 8 -23
-2 -13 -6 -50 -9 -83 -3 -33 -8 -94 -12 -135 -3 -41 -8 -91 -9 -110 -1 -19 -3
-35 -4 -35 -1 0 -4 -29 -6 -65 -3 -36 -7 -94 -11 -130 -3 -36 -7 -84 -9 -107
-2 -23 -6 -66 -9 -95 -3 -29 -8 -82 -11 -118 -3 -36 -7 -89 -10 -117 -3 -29
-7 -74 -9 -100 -5 -49 -14 -155 -21 -252 -3 -30 -7 -57 -10 -60 -3 -3 -144 -6
-313 -7 -188 0 -317 -5 -332 -11 -35 -15 -70 -48 -125 -118 -58 -73 -221 -237
-290 -291 -27 -21 -56 -44 -65 -51 -38 -31 -89 -64 -137 -89 -29 -16 -53 -32
-53 -36 0 -4 -6 -8 -14 -8 -7 0 -34 -11 -60 -25 -25 -13 -46 -22 -46 -18 0 3
-6 1 -12 -4 -11 -9 -79 -35 -98 -38 -3 0 -21 -6 -40 -12 -113 -38 -338 -57
-475 -39 -208 26 -385 93 -569 215 -38 25 -77 51 -85 56 -60 38 -265 242 -324
323 -26 35 -57 76 -70 90 -48 56 -49 56 -364 57 -160 0 -294 3 -296 5 -8 8
-31 255 -32 332 0 27 -2 48 -5 48 -3 0 -5 12 -6 28 -1 34 -13 181 -20 247 -3
28 -7 70 -9 95 -4 57 -14 159 -21 230 -3 30 -7 84 -10 120 -2 36 -6 83 -9 105
-4 39 -16 169 -19 210 -1 20 6 20 354 21 339 1 357 2 395 21 39 21 59 37 93
79 89 110 230 257 300 312 19 15 40 32 46 38 10 9 135 93 181 121 21 13 154
79 190 94 74 32 260 77 308 75 15 -1 27 1 27 4 0 7 208 4 275 -4z m1416 -2868
c142 0 257 -3 255 -6 -2 -4 -7 -68 -11 -142 -7 -129 -11 -185 -15 -185 -1 0
-3 -9 -4 -20 -3 -22 -19 -196 -31 -346 -3 -37 -8 -86 -10 -109 -2 -23 -7 -74
-10 -114 -3 -39 -8 -95 -11 -124 -3 -29 -7 -72 -9 -95 -4 -56 -15 -183 -20
-227 -2 -19 -7 -71 -10 -115 -4 -44 -8 -100 -11 -125 -2 -25 -6 -74 -9 -110
-5 -67 -9 -116 -21 -230 -3 -36 -8 -85 -9 -110 -14 -183 -21 -208 -73 -233
-22 -11 -300 -13 -1582 -13 l-1556 1 -30 25 c-41 33 -52 61 -59 150 -3 41 -8
95 -10 120 -3 25 -7 72 -10 105 -3 33 -7 80 -10 104 -2 24 -7 78 -10 120 -3
43 -7 97 -10 122 -12 120 -15 160 -20 234 -3 44 -8 94 -10 110 -2 17 -7 66
-10 110 -4 44 -8 100 -11 125 -6 61 -15 166 -19 215 -7 85 -17 202 -21 235 -6
49 -16 265 -17 390 l-2 105 258 0 c282 0 264 4 331 -60 121 -115 388 -279 561
-344 33 -13 69 -27 80 -31 11 -5 31 -11 45 -15 14 -3 50 -13 80 -21 30 -9 67
-17 83 -19 15 -2 31 -6 35 -9 4 -2 37 -8 72 -11 36 -4 79 -9 95 -11 34 -5 239
-4 300 1 38 3 91 10 160 21 41 7 228 55 240 63 6 3 16 6 23 7 19 3 159 63 198
84 19 11 34 17 34 13 0 -3 8 0 18 8 15 13 40 27 107 63 11 6 22 14 25 17 3 3
25 19 50 34 50 31 156 112 210 162 81 73 105 91 113 86 5 -3 125 -5 268 -5z"/>
<path d="M5246 5302 c-3 -3 -22 -6 -42 -8 -102 -9 -348 -121 -447 -204 -7 -6
-36 -29 -64 -52 -29 -23 -53 -45 -53 -50 0 -4 -7 -8 -15 -8 -8 0 -15 -3 -15
-7 0 -5 -22 -31 -48 -59 -80 -86 -155 -182 -175 -224 -4 -8 -16 -28 -27 -45
-11 -16 -25 -41 -30 -55 -6 -14 -18 -38 -25 -55 -78 -169 -110 -381 -79 -527
6 -32 9 -58 7 -58 -3 0 -1 -6 4 -12 6 -7 13 -24 16 -38 9 -38 67 -141 83 -147
17 -6 128 49 243 121 22 14 45 26 51 26 5 0 10 3 10 8 0 4 13 13 30 20 57 26
230 161 230 181 0 5 6 11 14 14 8 3 30 39 50 79 28 57 37 89 41 148 14 200 34
274 110 392 73 112 147 179 379 342 77 55 147 106 154 113 7 7 18 13 24 13 21
0 -38 37 -92 58 -30 12 -83 26 -118 32 -61 11 -207 12 -216 2z"/>
<path d="M5695 4974 c-71 -57 -137 -107 -145 -111 -8 -4 -17 -9 -20 -12 -3 -3
-27 -24 -55 -45 -179 -141 -241 -250 -260 -456 -4 -36 -10 -81 -20 -130 -7
-35 -41 -122 -51 -131 -8 -6 -14 -16 -14 -21 0 -12 -92 -127 -102 -127 -4 -1
-24 -17 -45 -37 -47 -45 -177 -133 -306 -207 -54 -32 -100 -57 -102 -57 -2 0
-16 -5 -31 -10 l-27 -11 21 -15 c50 -35 145 -56 257 -56 116 -1 142 1 215 21
157 42 318 126 454 236 46 37 167 160 198 200 12 17 25 32 28 35 18 16 84 117
125 190 50 91 109 253 121 335 9 63 9 207 1 260 -12 68 -14 79 -25 106 -6 15
-8 30 -5 33 4 3 1 6 -5 6 -7 0 -12 5 -12 10 0 21 -43 100 -54 99 -6 0 -69 -47
-141 -105z"/>
</g>
</svg>
